<svg xmlns="http://www.w3.org/2000/svg" width="111.991" height="58.969" viewBox="0 0 111.991 58.969"><g transform="translate(0 0)"><g transform="translate(53.739 1.543)"><g transform="translate(0 0)"><path d="M229.856,109.895a.939.939,0,0,0-.939.939v5.183a.939.939,0,1,0,1.878,0h0v-5.183A.939.939,0,0,0,229.856,109.895Z" transform="translate(-228.917 -109.895)" fill="#fff"/></g></g><g transform="translate(60.99 3.417)"><path d="M264.224,118.052l-.017-.011a.939.939,0,0,0-1.305.244l-2.93,4.244a.951.951,0,0,0,1.578,1.061l2.93-4.235A.939.939,0,0,0,264.224,118.052Z" transform="translate(-259.804 -117.876)" fill="#fff"/></g><g transform="translate(43.516 3.419)"><g transform="translate(0 0)"><path d="M190.013,122.534l-2.93-4.244a.942.942,0,1,0-1.549,1.07l2.93,4.235a.939.939,0,1,0,1.549-1.061Z" transform="translate(-185.367 -117.884)" fill="#fff"/></g></g><g transform="translate(0 0)"><g transform="translate(0 0)"><path d="M111.9,159.471a.939.939,0,0,0-1.268-.376l-8.263,4.535L82.962,128.239l19.165-10.508a.946.946,0,0,0-.939-1.643L81.234,127.046a.939.939,0,0,0-.366,1.268l.657,1.211-4,2.2a.939.939,0,0,0-.366,1.268l.939,1.718-3.033,1.671A1.878,1.878,0,0,1,73,136.2l-.329-.263a7.052,7.052,0,0,0,3.052-5.024,2.592,2.592,0,0,0-.864-2.291,2.676,2.676,0,0,0-2.46-.582L65.13,129.92l-2.188-1.737a.938.938,0,0,0-.582-.207H52.031a5.635,5.635,0,0,0-4.78,2.7l-1.333,2.225H34.866a.939.939,0,0,0-.385-1.211l-4-2.2.657-1.211a.939.939,0,0,0-.366-1.268l-19.982-10.93a.946.946,0,0,0-.939,1.643l19.194,10.508L9.634,163.63l-8.263-4.535a.939.939,0,0,0-1.268.376.939.939,0,0,0,.366,1.239l9.09,4.977a.845.845,0,0,0,.451.113.94.94,0,0,0,.817-.488l3.014-5.446,4,2.2a.941.941,0,0,0,.451.113,1.26,1.26,0,0,0,.263,0,1,1,0,0,0,.563-.451L22,156.466l2.573,1.136a3.863,3.863,0,0,0,3.69,6.526l4.413-1.146v.845a3.888,3.888,0,0,0,3.878,3.869,3.755,3.755,0,0,0,2.282-.761v.535A3.859,3.859,0,0,0,45,170.588v.535a3.859,3.859,0,0,0,7.249,1.794,4.583,4.583,0,0,0,2.7.939,4.7,4.7,0,0,0,3.287-1.362,4.592,4.592,0,0,0,1.324-2.817,4.639,4.639,0,0,0,7.23-3.409,4.639,4.639,0,0,0,7.23-3.4,4.611,4.611,0,0,0,7.014-5.249l7.409-3.972,4.442,8a1,1,0,0,0,.563.451,1.266,1.266,0,0,0,.263,0,.942.942,0,0,0,.451-.113l4-2.2,3.014,5.484a.939.939,0,0,0,.826.488.836.836,0,0,0,.441-.113l9.09-4.977A.939.939,0,0,0,111.9,159.471Zm-39-29.617a.826.826,0,0,1,.742.178.694.694,0,0,1,.2.629,5.193,5.193,0,0,1-2.723,4.038l-4.141-3.287Zm-54.989,30.1-3.174-1.737,14.836-27.053,3.174,1.747Zm9.86,2.319a2.047,2.047,0,0,1-1.521-.178,1.991,1.991,0,0,1,.366-3.634l5.906,2.592Zm10.771-1.728v3.24a2,2,0,0,1-3.991,0v-3.24a2,2,0,0,1,3.991-.274A2.049,2.049,0,0,1,38.546,160.55Zm4.33,9.016a2,2,0,0,1-2.132-1.859,1.974,1.974,0,0,1,0-.274v-3.249a2,2,0,0,1,3.991-.274,1.975,1.975,0,0,1,0,.274v3.249A2,2,0,0,1,42.876,169.566Zm8.018,1.52a2,2,0,0,1-3.991,0v-3.258a2,2,0,0,1,3.991,0Zm27.7-10.151a2.817,2.817,0,0,1-3.756.094l-2-1.8-6.874-6.395a.939.939,0,0,0-1.371,1.283.911.911,0,0,0,.094.088l6.827,6.357a2.779,2.779,0,1,1-3.953,3.906l-2-1.878-5.343-4.967a.939.939,0,0,0-1.371,1.283.924.924,0,0,0,.094.088l5.305,4.939a2.751,2.751,0,0,1-3.906,3.869l-1.991-1.756-3.916-3.653a.939.939,0,1,0-1.249,1.362l3.878,3.606a2.752,2.752,0,1,1-3.906,3.878.94.94,0,0,0-.366-.2v-3.211a3.859,3.859,0,0,0-6.179-3.108v-.535a3.888,3.888,0,0,0-3.869-3.878,3.841,3.841,0,0,0-2.291.77v-.535a3.859,3.859,0,0,0-7.512-1.333L22.9,154.776l10.949-19.964h11l-1.878,3.2a2.883,2.883,0,0,0-.169,2.667,2.92,2.92,0,0,0,2.056,1.671,14.829,14.829,0,0,0,2.817.31,6.892,6.892,0,0,0,4.254-1.23,10.773,10.773,0,0,0,3.371-3.756h1.728l21.513,19.278a2.7,2.7,0,0,1,.939,1.981A2.74,2.74,0,0,1,78.6,160.935Zm1.521-5a5.224,5.224,0,0,0-.366-.413l-19.926-17.9H60.5a.939.939,0,1,0,0-1.878H54.632a.939.939,0,0,0-.939.779s-.319,1.4-2.939,3.409c-1.465,1.127-3.841.939-5.578.573a1,1,0,0,1-.714-.582,1.024,1.024,0,0,1,.056-.939l4.385-7.306a3.756,3.756,0,0,1,3.164-1.794H62.05l9.785,7.784a3.756,3.756,0,0,0,4.141.357L79,136.371l8.554,15.588Zm13.973,4.019-4.432-8.076-10.4-18.968,3.174-1.747,14.836,27.044Z" transform="translate(0 -115.963)" fill="#fff"/></g></g></g></svg>