<svg xmlns="http://www.w3.org/2000/svg" width="83.312" height="79.911" viewBox="0 0 83.312 79.911"><g transform="translate(0 0)"><path d="M82,11.134H70.656v-3.5h4.663A1.312,1.312,0,0,0,76.63,6.319V1.312A1.312,1.312,0,0,0,75.319,0H63.368a1.312,1.312,0,0,0-1.313,1.312V6.319a1.312,1.312,0,0,0,1.313,1.312h4.663v3.5h-25.3v-3.5H47.39A1.312,1.312,0,0,0,48.7,6.319V1.312A1.312,1.312,0,0,0,47.39,0H35.44a1.312,1.312,0,0,0-1.312,1.312V6.319A1.312,1.312,0,0,0,35.44,7.631H40.1v3.5H15.28v-3.5h4.663a1.312,1.312,0,0,0,1.312-1.312V1.312A1.312,1.312,0,0,0,19.943,0H7.993A1.312,1.312,0,0,0,6.68,1.312V6.319A1.312,1.312,0,0,0,7.993,7.631h4.663v3.5H1.312A1.312,1.312,0,0,0,0,12.446V61.313a1.312,1.312,0,0,0,1.312,1.312h9.759V77.286H3.635a1.312,1.312,0,0,0,0,2.624H79.676a1.312,1.312,0,0,0,0-2.624H72.241V62.625H82a1.312,1.312,0,0,0,1.312-1.312V12.446A1.312,1.312,0,0,0,82,11.134ZM64.68,2.624h9.326V5.007H64.68Zm-27.928,0h9.326V5.007H36.752ZM9.3,2.624h9.326V5.007H9.3ZM69.616,77.286H13.695V62.625H69.616ZM80.687,60H2.624V13.759H80.687Zm0,0" fill="#fff"/><path d="M60.648,141.352H72.6a1.313,1.313,0,0,0,1.313-1.313v-11.95a1.312,1.312,0,0,0-1.313-1.312H60.648a1.312,1.312,0,0,0-1.312,1.312v11.95A1.312,1.312,0,0,0,60.648,141.352ZM61.96,129.4h9.326v9.326H61.96Zm0,0" transform="translate(-49.681 -106.148)" fill="#fff"/><path d="M187.886,129.4h31.519a1.312,1.312,0,1,0,0-2.624H187.886a1.312,1.312,0,1,0,0,2.624Zm0,0" transform="translate(-156.215 -106.148)" fill="#fff"/><path d="M277.507,163.5a1.312,1.312,0,0,0,0,2.624h8.639a1.312,1.312,0,0,0,0-2.624Zm0,0" transform="translate(-231.253 -136.892)" fill="#fff"/><path d="M375.551,163.5H362.613a1.312,1.312,0,1,0,0,2.624h12.938a1.312,1.312,0,1,0,0-2.624Zm0,0" transform="translate(-302.511 -136.892)" fill="#fff"/><path d="M410.613,128.089a1.312,1.312,0,0,0,1.312,1.312h4.915a1.312,1.312,0,1,0,0-2.624h-4.915A1.312,1.312,0,0,0,410.613,128.089Zm0,0" transform="translate(-343.799 -106.148)" fill="#fff"/><path d="M187.886,166.121h9.784a1.312,1.312,0,0,0,0-2.624h-9.784a1.312,1.312,0,0,0,0,2.624Zm0,0" transform="translate(-156.215 -136.892)" fill="#fff"/><path d="M187.886,202.843h12.735a1.312,1.312,0,0,0,0-2.624H187.886a1.312,1.312,0,0,0,0,2.624Zm0,0" transform="translate(-156.215 -167.64)" fill="#fff"/><path d="M175.912,271.543H139.949a1.312,1.312,0,1,0,0,2.624h35.963a1.312,1.312,0,1,0,0-2.624Zm0,0" transform="translate(-116.078 -227.358)" fill="#fff"/><path d="M208.082,308.266H195.12a1.312,1.312,0,1,0,0,2.624h12.961a1.312,1.312,0,1,0,0-2.624Zm0,0" transform="translate(-162.272 -258.105)" fill="#fff"/><path d="M404.182,271.543h-7.374a1.312,1.312,0,0,0,0,2.624h7.374a1.312,1.312,0,1,0,0-2.624Zm0,0" transform="translate(-331.142 -227.358)" fill="#fff"/><path d="M60.648,274.167h7.374a1.312,1.312,0,0,0,0-2.624H60.648a1.312,1.312,0,0,0,0,2.624Zm0,0" transform="translate(-49.681 -227.358)" fill="#fff"/><path d="M75.329,308.266H60.648a1.312,1.312,0,1,0,0,2.624H75.329a1.312,1.312,0,1,0,0-2.624Zm0,0" transform="translate(-49.681 -258.105)" fill="#fff"/></g></svg>