<svg xmlns="http://www.w3.org/2000/svg" width="83.216" height="73.599" viewBox="0 0 83.216 73.599"><g transform="translate(0 0)"><path d="M236.517,48.51H223.5l7.775-8.656a2.418,2.418,0,0,0-.183-3.416l-3.344-3a2.421,2.421,0,0,0-3.416.183L210.951,48.51H187.668a1.219,1.219,0,1,0,0,2.438h21.093L203.322,57a2.4,2.4,0,0,0-.616,1.746c0,.076.012.151.023.226l-1.869,5.054a1.937,1.937,0,0,0,2.682,2.409l4.83-2.4c.03,0,.06,0,.091,0s.088,0,.132,0a2.4,2.4,0,0,0,1.67-.8l11.04-12.29h15.211a.407.407,0,0,1,.406.406V98.319a.407.407,0,0,1-.406.406h-8.868a1.219,1.219,0,1,0,0,2.438h8.868a2.848,2.848,0,0,0,2.844-2.844V51.354A2.847,2.847,0,0,0,236.517,48.51Zm-7.072-10.271L228,39.85l-3.315-2.978,1.448-1.612Zm-6.393.448.751.674L205.9,59.291l-.751-.675Zm-18.579,22.6,1.408,1.265-2.3,1.142Zm3.991.308-.751-.674,17.9-19.931.75.674Zm0,0" transform="translate(-156.146 -27.564)" fill="#fff"/><path d="M66.195,71.661H11.368a8.94,8.94,0,0,1-8.93-8.93v-.644a8.939,8.939,0,0,1,8.93-8.93h2.505a2.847,2.847,0,0,0,2.844-2.844V23.884h9.5a1.219,1.219,0,0,0,0-2.438h-9.5V17.213a1.219,1.219,0,1,0-2.438,0v33.1a.407.407,0,0,1-.406.406H11.368a11.354,11.354,0,0,0-8.93,4.341V11.868a8.94,8.94,0,0,1,8.93-8.93h2.5a.407.407,0,0,1,.406.406v8.561a1.219,1.219,0,0,0,2.438,0V3.344A2.847,2.847,0,0,0,13.873.5h-2.5A11.381,11.381,0,0,0,0,11.868V62.731A11.381,11.381,0,0,0,11.368,74.1H66.195a1.219,1.219,0,0,0,0-2.438Zm0,0" transform="translate(0 -0.5)" fill="#fff"/><path d="M316.8,208.555a9.384,9.384,0,0,0-9.354,8.81h-5.612a1.219,1.219,0,0,0-1.219,1.219v13.924a1.219,1.219,0,0,0,1.219,1.219h13.924a1.218,1.218,0,0,0,1.219-1.219V227.3a9.372,9.372,0,0,0-.177-18.742Zm-2.26,15.929a6.961,6.961,0,0,1-4.415-4.68h4.415Zm-11.487,6.806V219.8h4.563a9.4,9.4,0,0,0,6.924,7.221v4.265Zm13.925-6.43v-6.275a1.219,1.219,0,0,0-1.219-1.219h-5.869a6.934,6.934,0,1,1,7.088,7.494Zm0,0" transform="translate(-251.755 -174.74)" fill="#fff"/><path d="M421.777,329.078a1.219,1.219,0,1,0,0,2.438h2.712a1.219,1.219,0,1,0,0-2.438Zm0,0" transform="translate(-352.205 -275.674)" fill="#fff"/><path d="M425.708,349.653a1.219,1.219,0,0,0-1.219-1.219h-2.712a1.219,1.219,0,0,0,0,2.438h2.712A1.218,1.218,0,0,0,425.708,349.653Zm0,0" transform="translate(-352.205 -291.884)" fill="#fff"/><path d="M130.719,193h1.95a1.219,1.219,0,0,0,0-2.438h-1.95a1.219,1.219,0,0,0,0,2.438Zm0,0" transform="translate(-108.452 -159.675)" fill="#fff"/><path d="M130.719,214.856h9.41a1.219,1.219,0,1,0,0-2.438h-9.41a1.219,1.219,0,0,0,0,2.438Zm0,0" transform="translate(-108.452 -177.975)" fill="#fff"/><path d="M176.613,193h1.95a1.219,1.219,0,0,0,0-2.438h-1.95a1.219,1.219,0,1,0,0,2.438Zm0,0" transform="translate(-146.888 -159.675)" fill="#fff"/><path d="M224.458,190.566h-1.95a1.219,1.219,0,1,0,0,2.438h1.95a1.219,1.219,0,0,0,0-2.438Zm0,0" transform="translate(-185.323 -159.675)" fill="#fff"/><path d="M130.719,236.543h9.41a1.219,1.219,0,1,0,0-2.438h-9.41a1.219,1.219,0,0,0,0,2.438Zm0,0" transform="translate(-108.452 -196.138)" fill="#fff"/><path d="M129.5,257.008a1.219,1.219,0,0,0,1.219,1.219h14.918a1.219,1.219,0,1,0,0-2.438H130.719A1.219,1.219,0,0,0,129.5,257.008Zm0,0" transform="translate(-108.452 -214.297)" fill="#fff"/><path d="M148.807,278.7a1.219,1.219,0,0,0-1.219-1.219H130.719a1.219,1.219,0,0,0,0,2.438h16.869A1.218,1.218,0,0,0,148.807,278.7Zm0,0" transform="translate(-108.452 -232.46)" fill="#fff"/><path d="M135.3,313.637a1.219,1.219,0,0,0-1.219-1.219h-3.359a1.219,1.219,0,0,0-1.219,1.219V317a1.219,1.219,0,0,0,1.219,1.219h3.359A1.219,1.219,0,0,0,135.3,317Zm-2.438,2.14h-.921v-.921h.921Zm0,0" transform="translate(-108.452 -261.722)" fill="#fff"/><path d="M184.883,313.637a1.219,1.219,0,0,0-1.219-1.219H180.3a1.219,1.219,0,0,0-1.219,1.219V317a1.219,1.219,0,0,0,1.219,1.219h3.359A1.219,1.219,0,0,0,184.883,317Zm-2.438,2.14h-.921v-.921h.921Zm0,0" transform="translate(-149.979 -261.722)" fill="#fff"/><path d="M234.473,313.637a1.219,1.219,0,0,0-1.219-1.219h-3.359a1.219,1.219,0,0,0-1.219,1.219V317a1.218,1.218,0,0,0,1.219,1.219h3.359A1.219,1.219,0,0,0,234.473,317Zm-2.438,2.14h-.921v-.921h.921Zm0,0" transform="translate(-191.509 -261.722)" fill="#fff"/><path d="M134.078,365.086h-3.359A1.219,1.219,0,0,0,129.5,366.3v3.359a1.219,1.219,0,0,0,1.219,1.219h3.359a1.219,1.219,0,0,0,1.219-1.219V366.3A1.219,1.219,0,0,0,134.078,365.086Zm-1.219,3.358h-.921v-.921h.921Zm0,0" transform="translate(-108.452 -305.83)" fill="#fff"/><path d="M183.664,365.086H180.3a1.219,1.219,0,0,0-1.219,1.219v3.359a1.219,1.219,0,0,0,1.219,1.219h3.359a1.219,1.219,0,0,0,1.219-1.219V366.3A1.219,1.219,0,0,0,183.664,365.086Zm-1.219,3.358h-.921v-.921h.921Zm0,0" transform="translate(-149.979 -305.83)" fill="#fff"/><path d="M229.895,370.879h3.359a1.219,1.219,0,0,0,1.219-1.219V366.3a1.219,1.219,0,0,0-1.219-1.219h-3.359a1.219,1.219,0,0,0-1.219,1.219v3.359A1.218,1.218,0,0,0,229.895,370.879Zm1.219-3.358h.921v.92h-.921Zm0,0" transform="translate(-191.509 -305.826)" fill="#fff"/></g></svg>