<svg xmlns="http://www.w3.org/2000/svg" width="75.559" height="85.968" viewBox="0 0 75.559 85.968"><g transform="translate(0 0)"><path d="M202.672,242a22.668,22.668,0,1,0,22.667,22.667A22.692,22.692,0,0,0,202.672,242Zm0,20.149a7.537,7.537,0,0,1,2.519,14.648v5.3h-5.037v-5.3a7.544,7.544,0,0,1-5.038-7.092h5.038a2.519,2.519,0,1,0,2.519-2.519,7.537,7.537,0,0,1-2.519-14.648v-5.4h5.037v5.4a7.544,7.544,0,0,1,5.037,7.092H205.19a2.519,2.519,0,1,0-2.519,2.519Zm0,0" transform="translate(-149.78 -201.363)" fill="#fff"/><path d="M0,414v6.381H28.245A26.763,26.763,0,0,1,25.89,414Zm0,0" transform="translate(0 -344.484)" fill="#fff"/><path d="M25.187,350.392a27.715,27.715,0,0,1,.536-5.4H0v6.38H25.241C25.227,351.016,25.187,350.757,25.187,350.392Zm0,0" transform="translate(0 -287.069)" fill="#fff"/><path d="M30.994,277H0v6.357H27.242A26.933,26.933,0,0,1,30.994,277Zm0,0" transform="translate(0 -230.487)" fill="#fff"/><path d="M0,0H40.3V6.678H0ZM0,0" fill="#fff"/><path d="M0,139.223H40.3v6.51H0Zm0,0" transform="translate(0 -115.846)" fill="#fff"/><path d="M60,69.992h40.3V76.67H60Zm0,0" transform="translate(-49.926 -58.24)" fill="#fff"/><path d="M40.3,211.769v-3.777H0v6.549H36.049A28.152,28.152,0,0,1,40.3,211.769Zm0,0" transform="translate(0 -173.069)" fill="#fff"/></g></svg>