<svg xmlns="http://www.w3.org/2000/svg" width="90.683" height="71.694" viewBox="0 0 90.683 71.694"><g transform="translate(0 0)"><g transform="translate(0 0)"><path d="M166.647,81.548a16.24,16.24,0,1,0-16.24-16.24A16.259,16.259,0,0,0,166.647,81.548Zm0-29.432a13.192,13.192,0,1,1-13.192,13.192A13.207,13.207,0,0,1,166.647,52.115Z" transform="translate(-121.304 -49.067)" fill="#fff"/><ellipse cx="2.804" cy="2.804" rx="2.804" ry="2.804" transform="translate(6.334 56.13)" fill="#fff"/><path d="M90.349,210l-.047-.116a11.069,11.069,0,0,0-13.912-6.33l-11.407,3.959a10.48,10.48,0,0,0-10.212-3.033L42.66,207.557a10.833,10.833,0,0,1-8.183-1.2,22.124,22.124,0,0,0-11.361-3.14H23.1l-4.825,0v-4.567a1.524,1.524,0,0,0-1.524-1.524H1.524A1.524,1.524,0,0,0,0,198.657v40a1.524,1.524,0,0,0,1.524,1.524H16.751a1.524,1.524,0,0,0,1.524-1.524v-7.545h4.843a19.268,19.268,0,0,1,7.772,1.627l3.021,1.323a20.578,20.578,0,0,0,17.241-.329c10.816-5.236,30-14.521,36.96-17.885A4.6,4.6,0,0,0,90.349,210Zm-75.122-5.247v32.379H3.048V200.181H15.227ZM86.786,213.1c-6.961,3.364-26.145,12.65-36.961,17.886a17.533,17.533,0,0,1-14.69.28l-3.021-1.323a22.292,22.292,0,0,0-8.995-1.883H18.276V206.273l4.827,0h.013a19.076,19.076,0,0,1,9.795,2.708,13.9,13.9,0,0,0,10.5,1.535l12.112-3.082a7.407,7.407,0,0,1,8.608,4.29l.262.629.173.416.108.259-20.871,8.4,1.138,2.828,22.3-8.978.007,0,.01,0c.022-.009.042-.02.063-.03s.044-.02.066-.031.052-.03.077-.045.035-.02.052-.031.054-.039.081-.059l.039-.03c.027-.022.053-.046.078-.07l.033-.03c.024-.024.047-.05.07-.076l.031-.035c.021-.025.04-.052.059-.078s.021-.028.031-.042.033-.053.048-.08.02-.032.029-.049.028-.057.041-.086.015-.029.021-.045l0,0c.015-.036.028-.074.04-.111,0-.01.007-.019.01-.029a1.525,1.525,0,0,0-.051-1.031l-1.13-2.713-.008-.019-.178-.426,10.624-3.687a8.024,8.024,0,0,1,10.084,4.589l.047.116A1.522,1.522,0,0,1,86.786,213.1Z" transform="translate(0 -168.483)" fill="#fff"/><path d="M210.066,100.111a8.784,8.784,0,0,1-1.222-.447,6.186,6.186,0,0,1-1-.566,5.578,5.578,0,0,1-.735-.606l-.855,1.51a8.639,8.639,0,0,0,4.829,1.947v2.027h2.264V101.89a7.34,7.34,0,0,0,.805-.169,4.773,4.773,0,0,0,1.56-.725,3.394,3.394,0,0,0,1.033-1.212,3.741,3.741,0,0,0,.378-1.729,3.574,3.574,0,0,0-.328-1.61,3.065,3.065,0,0,0-.954-1.113,5.772,5.772,0,0,0-1.51-.765q-.463-.161-.984-.3V89.432a5.717,5.717,0,0,1,.885.306,5.1,5.1,0,0,1,.825.457,3.639,3.639,0,0,1,.6.507l.835-1.451a6.854,6.854,0,0,0-1.9-1.113,6.725,6.725,0,0,0-1.243-.349V85.655H211.08v2.031a6.455,6.455,0,0,0-1.57.334,4.458,4.458,0,0,0-1.441.825,3.665,3.665,0,0,0-.944,1.272,4.068,4.068,0,0,0-.338,1.7,3.359,3.359,0,0,0,.278,1.431,2.7,2.7,0,0,0,.825,1.014,5.138,5.138,0,0,0,1.361.715,17.184,17.184,0,0,0,1.829.541v4.805A6.9,6.9,0,0,1,210.066,100.111Zm3.278-3.954.08.029a4.2,4.2,0,0,1,.974.507,2.093,2.093,0,0,1,.606.656,1.765,1.765,0,0,1,.209.884,1.8,1.8,0,0,1-.815,1.609,3.087,3.087,0,0,1-1.054.416Zm-3.159-2.7a3.163,3.163,0,0,1-.874-.447,1.663,1.663,0,0,1-.507-.616,1.985,1.985,0,0,1-.169-.854,2.038,2.038,0,0,1,.676-1.609,3.138,3.138,0,0,1,1.769-.647v4.449Q210.584,93.595,210.185,93.454Z" transform="translate(-166.342 -78.575)" fill="#fff"/></g></g></svg>