<svg xmlns="http://www.w3.org/2000/svg" width="82.821" height="89.448" viewBox="0 0 82.821 89.448"><g transform="translate(0 0)"><path d="M38.159,8a28.154,28.154,0,0,0-9.939,54.5V77.57a1.655,1.655,0,0,0,1.656,1.656h1.656V82.54A1.655,1.655,0,0,0,33.19,84.2h9.939a1.655,1.655,0,0,0,1.656-1.656V79.227h1.656A1.655,1.655,0,0,0,48.1,77.57V62.5A28.154,28.154,0,0,0,38.159,8Zm4.969,67.914a1.655,1.655,0,0,0-1.656,1.656v3.313H34.847V77.57a1.655,1.655,0,0,0-1.656-1.656H31.534V67.632H44.785v8.282Zm2.8-16.164a1.657,1.657,0,0,0-1.14,1.574v2.995H31.534V61.324a1.656,1.656,0,0,0-1.14-1.574,24.847,24.847,0,1,1,15.531,0Z" transform="translate(3.251 5.251)" fill="#fff"/><path d="M27.656,9.939a1.655,1.655,0,0,0,1.656-1.656V1.656a1.656,1.656,0,1,0-3.313,0V8.282A1.655,1.655,0,0,0,27.656,9.939Z" transform="translate(13.754 0)" fill="#fff"/><path d="M54.282,24H47.656a1.656,1.656,0,0,0,0,3.313h6.626a1.656,1.656,0,1,0,0-3.313Z" transform="translate(26.883 15.754)" fill="#fff"/><path d="M10.282,24H3.656a1.656,1.656,0,0,0,0,3.313h6.626a1.656,1.656,0,0,0,0-3.313Z" transform="translate(-2 15.754)" fill="#fff"/><path d="M45.313,7.514,40.628,12.2a1.656,1.656,0,1,0,2.342,2.342l4.684-4.684a1.656,1.656,0,1,0-2.342-2.342Z" transform="translate(23.038 4.614)" fill="#fff"/><path d="M14.2,38.628,9.514,43.313a1.656,1.656,0,1,0,2.342,2.342l4.684-4.684A1.656,1.656,0,1,0,14.2,38.628Z" transform="translate(2.614 25.038)" fill="#fff"/><path d="M42.971,38.628a1.656,1.656,0,0,0-2.342,2.342l4.684,4.684a1.656,1.656,0,1,0,2.342-2.342Z" transform="translate(23.038 25.038)" fill="#fff"/><path d="M14.2,14.541A1.656,1.656,0,1,0,16.541,12.2L11.857,7.514A1.656,1.656,0,1,0,9.514,9.857Z" transform="translate(2.614 4.614)" fill="#fff"/><path d="M34.877,13A19.9,19.9,0,0,0,15,32.877a1.656,1.656,0,0,0,3.313,0A16.583,16.583,0,0,1,34.877,16.313a1.656,1.656,0,1,0,0-3.313Z" transform="translate(6.534 8.534)" fill="#fff"/></g></svg>