<svg xmlns="http://www.w3.org/2000/svg" width="67.648" height="67.648" viewBox="0 0 67.648 67.648"><g transform="translate(0 0)"><path d="M23.556,17.255H50.132a1.127,1.127,0,1,0,0-2.255H23.556a1.127,1.127,0,0,0,0,2.255Z" transform="translate(2.859 2.855)" fill="#fff"/><path d="M23.556,32.255H50.132a1.127,1.127,0,1,0,0-2.255H23.556a1.127,1.127,0,0,0,0,2.255Z" transform="translate(2.859 4.768)" fill="#fff"/><path d="M23.556,47.255H50.132a1.127,1.127,0,0,0,0-2.255H23.556a1.127,1.127,0,0,0,0,2.255Z" transform="translate(2.859 6.68)" fill="#fff"/><path d="M66.521,0H1.127A1.127,1.127,0,0,0,0,1.127V66.521a1.127,1.127,0,0,0,1.127,1.127H66.521a1.127,1.127,0,0,0,1.127-1.127V1.127A1.127,1.127,0,0,0,66.521,0ZM65.394,65.394H2.255V2.255H65.394Z" transform="translate(0 0)" fill="#fff"/><path d="M12.692,19.427l2.738-1.44,2.738,1.44-.522-3.049,2.214-2.16L16.8,13.774,15.43,11l-1.369,2.774L11,14.218l2.215,2.16Z" transform="translate(1.402 2.345)" fill="#fff"/><path d="M12.692,34.51l2.738-1.44,2.738,1.44-.522-3.049L19.86,29.3,16.8,28.857,15.43,26.083l-1.369,2.774L11,29.3l2.215,2.159Z" transform="translate(1.402 4.268)" fill="#fff"/><path d="M12.692,49.953l2.738-1.44,2.738,1.44L17.645,46.9l2.214-2.159L16.8,44.3,15.43,41.526,14.061,44.3,11,44.745,13.215,46.9Z" transform="translate(1.402 6.237)" fill="#fff"/></g></svg>