<svg xmlns="http://www.w3.org/2000/svg" width="65.969" height="88.816" viewBox="0 0 65.969 88.816"><g transform="translate(0 0)"><g transform="translate(0 0)"><path d="M128.669,40.091l-4.339-5.937a1.119,1.119,0,0,1-.018-1.289l4.249-5.992a1.113,1.113,0,0,0-.381-1.616L121.7,21.79a1.084,1.084,0,0,1-.563-1.162l1.216-7.244a1.106,1.106,0,0,0-1.053-1.289l-7.335-.309a1.107,1.107,0,0,1-1.017-.8l-2.034-7.081a1.107,1.107,0,0,0-1.507-.708l-6.754,2.9a1.148,1.148,0,0,1-1.271-.272L96.478.366a1.119,1.119,0,0,0-1.67.018L89.978,5.922a1.091,1.091,0,0,1-1.253.29l-6.79-2.8a1.109,1.109,0,0,0-1.489.726L78.5,11.223a1.126,1.126,0,0,1-1,.817l-7.335.418a1.118,1.118,0,0,0-1.035,1.307l1.325,7.226a1.1,1.1,0,0,1-.545,1.162l-6.427,3.559a1.115,1.115,0,0,0-.363,1.616l4.339,5.937a1.119,1.119,0,0,1,.018,1.289l-4.249,5.991a1.113,1.113,0,0,0,.381,1.616L70.1,45.629a1.084,1.084,0,0,1,.563,1.162l-1.216,7.244A1.106,1.106,0,0,0,70.5,55.324l7.335.309a1.107,1.107,0,0,1,1.017.8L80.9,63.494a1.107,1.107,0,0,0,1.507.708l6.754-2.9a1.148,1.148,0,0,1,1.271.272l4.9,5.465A1.119,1.119,0,0,0,97,67.017l4.83-5.538a1.09,1.09,0,0,1,1.253-.29l6.79,2.8a1.109,1.109,0,0,0,1.489-.726l1.943-7.081a1.126,1.126,0,0,1,1-.817l7.335-.418a1.118,1.118,0,0,0,1.035-1.307l-1.325-7.226a1.1,1.1,0,0,1,.545-1.162l6.427-3.559A1.07,1.07,0,0,0,128.669,40.091ZM95.915,53.654a19.935,19.935,0,1,1,19.935-19.935A19.968,19.968,0,0,1,95.915,53.654Z" transform="translate(-62.919 0)" fill="#fff"/><path d="M278.57,366.513a5.749,5.749,0,0,1-4.1,1.707,6.264,6.264,0,0,1-1.652-.236l-4.684-1.416-3.613,3.3c-.127.109-.236.218-.363.309l5.81,18.011a.82.82,0,0,0,1.434.254l4.23-5.429a.813.813,0,0,1,.872-.29l6.591,1.925a.824.824,0,0,0,1.017-1.035Z" transform="translate(-227.618 -299.969)" fill="#fff"/><path d="M131.151,366.567l-4.684,1.416a5.68,5.68,0,0,1-1.652.236,5.78,5.78,0,0,1-4.1-1.707l-5.538,17.121a.82.82,0,0,0,1.017,1.035l6.591-1.924a.8.8,0,0,1,.871.29l4.23,5.429a.821.821,0,0,0,1.434-.254l5.81-18.011a2.961,2.961,0,0,1-.363-.309Z" transform="translate(-105.654 -299.969)" fill="#fff"/><path d="M196.667,120.11l-7.517-.545-2.832-6.972a1.58,1.58,0,0,0-2.923,0l-2.832,6.972-7.517.545a1.58,1.58,0,0,0-.908,2.778l5.755,4.866-1.8,7.317a1.577,1.577,0,0,0,2.36,1.725l6.391-3.976,6.391,3.976a1.577,1.577,0,0,0,2.36-1.725l-1.8-7.317,5.755-4.866A1.571,1.571,0,0,0,196.667,120.11Z" transform="translate(-151.852 -91.349)" fill="#fff"/></g></g></svg>