<svg xmlns="http://www.w3.org/2000/svg" width="95.457" height="88.992" viewBox="0 0 95.457 88.992"><g transform="translate(-0.627 20.015) rotate(-14)"><g transform="translate(71.383 31.422)"><g transform="translate(0 0)"><path d="M12.927,0H1.253a1.253,1.253,0,0,0,0,2.507H12.927a1.253,1.253,0,0,0,0-2.507Z" fill="#fff"/></g></g><g transform="translate(71.971 0)"><g transform="translate(0 0)"><path d="M10.394.367a1.253,1.253,0,0,0-1.772,0L.367,8.622A1.253,1.253,0,1,0,2.14,10.394L10.394,2.14A1.253,1.253,0,0,0,10.394.367Z" fill="#fff"/></g></g><g transform="translate(71.971 54.59)"><g transform="translate(0 0)"><path d="M10.394,8.622,2.14.367A1.253,1.253,0,0,0,.367,2.14l8.255,8.255a1.268,1.268,0,0,0,1.772,0A1.253,1.253,0,0,0,10.394,8.622Z" fill="#fff"/></g></g><g transform="translate(0 2.593)"><g transform="translate(0 0)"><path d="M62.5,0a5.41,5.41,0,0,0-5.375,4.862c-1.821,1.779-11.839,10.715-29.2,10.715-.2,0-.4,0-.6,0h0c-10.3.035-16.749,1-20.917,3.126C2.038,20.937,0,24.553,0,30.083s2.038,9.146,6.413,11.379a19.821,19.821,0,0,0,3.324,1.3c3.692,3.66,5.723,9.714,6.2,18.494A7.651,7.651,0,0,0,23.576,68.5h4.441a4.3,4.3,0,0,0,0-8.6,1.19,1.19,0,0,1-1.186-1.112c-.112-1.782-.324-4.219-.721-6.775a13.02,13.02,0,0,0,3.472-.931A7.59,7.59,0,0,0,34.39,45.02a44.18,44.18,0,0,1,15.525,5.07A34.529,34.529,0,0,1,57.127,55.3,5.4,5.4,0,0,0,67.9,54.764V5.4A5.409,5.409,0,0,0,62.5,0ZM28.017,62.4a1.795,1.795,0,0,1,0,3.589H23.576a5.144,5.144,0,0,1-5.132-4.865c-.416-7.594-1.97-13.348-4.729-17.452a66.279,66.279,0,0,0,7.767.775l.051,0c.839,1.889,2.276,6.222,2.8,14.489A3.7,3.7,0,0,0,28.017,62.4Zm.563-13.623a10.556,10.556,0,0,1-2.911.759c-.007-.035-.015-.068-.022-.1a33.828,33.828,0,0,0-1.191-4.417,3.413,3.413,0,0,0-.17-.47q1.3.031,2.7.039c1.639.009,3.278.033,4.913.166A5.118,5.118,0,0,1,28.58,48.777ZM57.1,51.924a40.072,40.072,0,0,0-5.865-3.969,47.814,47.814,0,0,0-22.647-5.868V28.128a1.253,1.253,0,1,0-2.507,0V42.067c-1.369-.023-2.968-.066-3.447-.08-7.123-.278-11.975-1.171-15.081-2.757-3.537-1.806-5.046-4.541-5.046-9.146s1.509-7.341,5.046-9.146c3.584-1.829,9.49-2.738,18.528-2.842,0,0,0,5.012,0,5.019a1.253,1.253,0,1,0,2.507,0V18.08a47.553,47.553,0,0,0,22.647-5.868A40.071,40.071,0,0,0,57.1,8.242Zm8.3,2.839a2.9,2.9,0,1,1-5.791,0h0V5.4h0a2.9,2.9,0,1,1,5.791,0Z" fill="#fff"/></g></g></g></svg>