<svg xmlns="http://www.w3.org/2000/svg" width="83.099" height="84.186" viewBox="0 0 83.099 84.186"><g transform="translate(0 0)"><path d="M63.662,0A39.534,39.534,0,0,0,24.2,39.462a31.268,31.268,0,0,0,.139,3.6l2.769-.277a26.652,26.652,0,0,1-.139-3.323A36.693,36.693,0,1,1,65.046,76.155l3.046-3.046L66.154,71.17l-6.508,6.508,6.508,6.507,1.938-1.938L64.77,78.925A39.47,39.47,0,0,0,63.662,0Zm0,0" transform="translate(-20.045)" fill="#fff"/><path d="M162.046,96H112.2v24.924h49.847Zm-2.769,22.154H114.968V98.769h44.309Zm0,0" transform="translate(-92.814 -79.384)" fill="#fff"/><path d="M229.738,147.077a5.539,5.539,0,1,0-5.539-5.539A5.554,5.554,0,0,0,229.738,147.077Zm0-8.308a2.769,2.769,0,1,1-2.769,2.769A2.777,2.777,0,0,1,229.738,138.769Zm0,0" transform="translate(-185.429 -112.461)" fill="#fff"/><path d="M146.969,130.769h2.769V128H144.2v5.539h2.769Zm0,0" transform="translate(-119.276 -105.846)" fill="#fff"/><path d="M149.738,178.769h-2.769V176H144.2v5.539h5.539Zm0,0" transform="translate(-119.276 -145.538)" fill="#fff"/><path d="M341.738,176h-2.769v2.769H336.2v2.769h5.539Zm0,0" transform="translate(-278.044 -145.538)" fill="#fff"/><path d="M338.968,133.539h2.769V128H336.2v2.769h2.769Zm0,0" transform="translate(-278.044 -105.846)" fill="#fff"/><path d="M184.2,160h4.154v2.769H184.2Zm0,0" transform="translate(-152.352 -132.307)" fill="#fff"/><path d="M304.2,160h4.154v2.769H304.2Zm0,0" transform="translate(-251.583 -132.307)" fill="#fff"/><path d="M48.2,344h2.769v4.154H48.2Zm0,0" transform="translate(-39.891 -284.46)" fill="#fff"/><path d="M69.431,273.614a5.2,5.2,0,0,0-5.123-5.123,4.725,4.725,0,0,0-1.385.138L46.17,273.476c-.139,0-.416.139-.554,0l-3.877-.692a5.648,5.648,0,0,0,2.216-7.477,5.435,5.435,0,0,0-4.846-2.908H21.661a3.9,3.9,0,0,0-2.077.554l-2.769,1.8v-2.077H.2v23.539H16.815v-3.462l13.708,5.677a3.839,3.839,0,0,0,2.769.139l32.4-10.108A4.911,4.911,0,0,0,69.431,273.614Zm-55.386,9.831H2.969v-18H8.507v8.308h2.769v-8.308h2.769ZM32.6,285.937a1.181,1.181,0,0,1-.969,0l-14.816-6.231v-11.77l4.154-2.353a1.037,1.037,0,0,1,.692-.139H38.969a2.769,2.769,0,1,1,0,5.539H29.277v1.385L29,273.753l15.923,2.631a3.982,3.982,0,0,0,1.8-.139L63.478,271.4a2.363,2.363,0,0,1,2.908,1.662,2.283,2.283,0,0,1-1.523,2.908Zm0,0" transform="translate(-0.199 -216.982)" fill="#fff"/></g></svg>