<svg xmlns="http://www.w3.org/2000/svg" width="95.77" height="70.306" viewBox="0 0 95.77 70.306"><g transform="translate(0 -68.066)"><g transform="translate(73.464 98.066)"><path d="M403.781,230.1c-3.259-1.629-9.369-1.648-9.627-1.648a1.4,1.4,0,1,0,0,2.806c1.577,0,6.154.243,8.372,1.352a1.4,1.4,0,0,0,1.255-2.51Z" transform="translate(-392.751 -228.449)" fill="#fff"/></g><g transform="translate(0 68.066)"><g transform="translate(0 0)"><path d="M91.488,119.687l-5.794-1.655a.588.588,0,0,1-.425-.563v-1.934a10.544,10.544,0,0,0,1.341-1.1,10.32,10.32,0,0,0,3.159-7.466V104.3l.56-1.12a8.95,8.95,0,0,0,.94-3.982V91.969a1.4,1.4,0,0,0-1.4-1.4h-13.5a8.913,8.913,0,0,0-8.9,8.9v.084a7.441,7.441,0,0,0,.782,3.311l.718,1.437v2.291a10.946,10.946,0,0,0,4.5,8.85v2.027c0,.313,0,.442-1.158.773l-2.827.808L61.3,116.075A1.4,1.4,0,0,0,60.919,115l-2.613-2.746v-4.609c.276-.228.549-.461.813-.709a16.465,16.465,0,0,0,5.187-11.97V91.288a16.216,16.216,0,0,0,1.5-6.819v-15a1.4,1.4,0,0,0-1.4-1.4h-21A13.418,13.418,0,0,0,30,81.469v3a16.216,16.216,0,0,0,1.5,6.819v3.167a17.142,17.142,0,0,0,6,13.083v4.717L34.886,115a1.4,1.4,0,0,0-.382,1.074l-8.631,3.139a7.356,7.356,0,0,0-1.734.909l-1.355-.678c4.035-1.756,5.313-4.226,5.374-4.349a1.4,1.4,0,0,0,0-1.255c-1.011-2.023-1.134-5.73-1.232-8.709-.033-.992-.064-1.929-.123-2.763-.478-6.729-5.594-11.8-11.9-11.8S3.482,95.64,3,102.369c-.059.834-.09,1.771-.123,2.763-.1,2.979-.221,6.686-1.232,8.709a1.4,1.4,0,0,0,0,1.255c.061.123,1.337,2.588,5.38,4.346l-3.765,1.882A5.872,5.872,0,0,0,0,126.6v10.364a1.4,1.4,0,1,0,2.806,0V126.6a3.08,3.08,0,0,1,1.712-2.77l4.688-2.344,1.631,1.55a5.9,5.9,0,0,0,8.133,0l1.631-1.55,1.529.764A7.387,7.387,0,0,0,21,126.171v10.8a1.4,1.4,0,1,0,2.806,0v-10.8a4.611,4.611,0,0,1,3.026-4.32l9.1-3.309,3.788,5.683a2.892,2.892,0,0,0,2.129,1.278q.145.014.289.014a2.891,2.891,0,0,0,2.05-.85l2.311-2.311v14.613a1.4,1.4,0,0,0,2.806,0V122.356l2.311,2.311a2.89,2.89,0,0,0,2.05.851q.144,0,.289-.014a2.892,2.892,0,0,0,2.129-1.278l3.789-5.683,9.1,3.309A4.611,4.611,0,0,1,72,126.172v10.8a1.4,1.4,0,1,0,2.806,0v-10.8a7.416,7.416,0,0,0-2.075-5.133l.347-.1a7.693,7.693,0,0,0,1.305-.471l3.582,3.582v12.919a1.4,1.4,0,1,0,2.806,0V124.05l3.557-3.557a3.337,3.337,0,0,0,.6.237l5.794,1.655a3.11,3.11,0,0,1,2.246,2.978v11.605a1.4,1.4,0,1,0,2.806,0V125.364A5.929,5.929,0,0,0,91.488,119.687ZM9,117.209a10.085,10.085,0,0,1-4.5-2.89,15.463,15.463,0,0,0,.8-3.359A10.461,10.461,0,0,0,9,115.528Zm8.037,3.8a3.1,3.1,0,0,1-4.267,0l-1.3-1.24a2.9,2.9,0,0,0,.341-1.37v-1.5a10.432,10.432,0,0,0,6.194,0V118.4a2.9,2.9,0,0,0,.341,1.371Zm-2.133-6.44a7.606,7.606,0,0,1-7.6-7.6,1.394,1.394,0,0,0-1.633-1.382c0-.121.008-.241.012-.361.031-.965.061-1.876.117-2.657a10.415,10.415,0,0,1,2.836-6.541,8.716,8.716,0,0,1,12.529,0A10.415,10.415,0,0,1,24,102.568c.055.781.086,1.692.117,2.657l.008.25a12.605,12.605,0,0,0-6.929-5.063,17.606,17.606,0,0,0-5.336-.845,1.4,1.4,0,0,0-.971.429L8.362,102.62a1.4,1.4,0,0,0,2.02,1.948l2.106-2.184c1.814.089,7.649.767,9.919,5.765A7.579,7.579,0,0,1,14.9,114.566Zm5.9,2.648v-1.673a10.377,10.377,0,0,0,3.7-4.573,15.444,15.444,0,0,0,.8,3.352A10.133,10.133,0,0,1,20.805,117.214Zm13.5-22.759V90.974a1.4,1.4,0,0,0-.14-.61,13.457,13.457,0,0,1-1.36-5.9v-3a10.609,10.609,0,0,1,10.6-10.6H63v13.6a13.456,13.456,0,0,1-1.36,5.9,1.4,1.4,0,0,0-.14.61v3.994a13.468,13.468,0,0,1-4.3,9.922,13.959,13.959,0,0,1-1.077.912l-.024.018a13.489,13.489,0,0,1-9.1,2.716A13.9,13.9,0,0,1,34.306,94.455Zm7.9,28.228a.088.088,0,0,1-.078.028.089.089,0,0,1-.071-.043l-4.363-6.545,1.4-1.475,6.619,4.524Zm5.7-5.414-7.6-5.193v-2.619a15.8,15.8,0,0,0,6.508,1.879q.555.036,1.1.036a16.25,16.25,0,0,0,7.583-1.858v2.563Zm5.848,5.4a.089.089,0,0,1-.071.043.086.086,0,0,1-.078-.028l-3.51-3.51,6.619-4.524,1.4,1.475Zm25.617-1.184L76.183,118.3a3.848,3.848,0,0,0,.087-.833v-.592a9.837,9.837,0,0,0,2.778.491c.108,0,.215,0,.323,0a10.42,10.42,0,0,0,3.093-.468v.565a3.354,3.354,0,0,0,.1.818Zm5.29-9.063a7.54,7.54,0,0,1-5.525,2.141,7.853,7.853,0,0,1-7.362-7.971v-2.623a1.4,1.4,0,0,0-.148-.627l-.867-1.733a4.621,4.621,0,0,1-.485-2.056v-.084a6.1,6.1,0,0,1,6.1-6.1h12.1V99.2a6.13,6.13,0,0,1-.644,2.727l-.708,1.416a1.4,1.4,0,0,0-.148.627v3A7.537,7.537,0,0,1,84.657,112.421Z" transform="translate(0 -68.066)" fill="#fff"/></g></g><g transform="translate(86.964 126.565)"><g transform="translate(0 0)"><path d="M466.326,380.814a1.4,1.4,0,0,0-1.4,1.4v9a1.4,1.4,0,1,0,2.806,0v-9A1.4,1.4,0,0,0,466.326,380.814Z" transform="translate(-464.923 -380.814)" fill="#fff"/></g></g><g transform="translate(6 128.42)"><g transform="translate(0 0)"><path d="M33.48,390.728a1.4,1.4,0,0,0-1.4,1.4v7.146a1.4,1.4,0,0,0,2.806,0v-7.146A1.4,1.4,0,0,0,33.48,390.728Z" transform="translate(-32.077 -390.728)" fill="#fff"/></g></g><g transform="translate(36 80.811)"><path d="M215.855,140.369c-5.306-5.306-16.407-4.291-20.934-3.609a2.88,2.88,0,0,0-2.461,2.869v3.232a1.4,1.4,0,0,0,2.806,0v-3.232a.093.093,0,0,1,.073-.095,44.323,44.323,0,0,1,9.114-.445c4.375.291,7.543,1.389,9.418,3.264a1.4,1.4,0,0,0,1.984-1.984Z" transform="translate(-192.46 -136.203)" fill="#fff"/></g><g transform="translate(30 129.566)"><g transform="translate(0 0)"><path d="M161.787,396.853a1.4,1.4,0,0,0-1.4,1.4v6a1.4,1.4,0,0,0,2.806,0v-6A1.4,1.4,0,0,0,161.787,396.853Z" transform="translate(-160.384 -396.853)" fill="#fff"/></g></g><g transform="translate(63 129.566)"><g transform="translate(0 0)"><path d="M338.209,396.853a1.4,1.4,0,0,0-1.4,1.4v6a1.4,1.4,0,0,0,2.806,0v-6A1.4,1.4,0,0,0,338.209,396.853Z" transform="translate(-336.806 -396.853)" fill="#fff"/></g></g></g></svg>