<svg xmlns="http://www.w3.org/2000/svg" width="69.42" height="64.167" viewBox="0 0 69.42 64.167"><g transform="translate(0 0)"><g transform="translate(0 0)"><path d="M56.458,35.159A20.109,20.109,0,0,0,19.2,28.478a11.519,11.519,0,0,0-2.113-.2A11.021,11.021,0,0,0,6.081,39.285a12.031,12.031,0,0,0,.228,2.284A15.316,15.316,0,0,0,0,53.917,16.374,16.374,0,0,0,4.154,64.751a14.826,14.826,0,0,0,10.278,5.168H26.823a1.927,1.927,0,0,0,0-3.854H14.6C8.765,65.708,3.854,60.155,3.854,53.9a11.442,11.442,0,0,1,5.667-9.85,1.943,1.943,0,0,0,.842-2.341,6.993,6.993,0,0,1-.428-2.455A7.165,7.165,0,0,1,17.087,32.1a7.029,7.029,0,0,1,2.441.428,1.936,1.936,0,0,0,2.412-.985A16.253,16.253,0,0,1,52.818,36.9a1.925,1.925,0,0,0,1.6,1.713A13.892,13.892,0,0,1,53.1,66.05H42.583a1.927,1.927,0,0,0,0,3.854H53.318a17.079,17.079,0,0,0,11.449-5.653,17.767,17.767,0,0,0-8.308-29.093Z" transform="translate(0 -18.4)" fill="#fff"/><path d="M181.918,198.9a1.921,1.921,0,0,0,0-2.727l-10.207-10.207a1.95,1.95,0,0,0-1.356-.571,1.89,1.89,0,0,0-1.356.571l-10.207,10.207a1.934,1.934,0,0,0,1.356,3.3,1.88,1.88,0,0,0,1.356-.571l6.923-6.923V223.8a1.927,1.927,0,1,0,3.854,0V191.981l6.923,6.923A1.9,1.9,0,0,0,181.918,198.9Z" transform="translate(-135.638 -161.56)" fill="#fff"/></g></g></svg>