<?xml version="1.0" encoding="utf-8"?>
<!-- Generator: Adobe Illustrator 24.1.0, SVG Export Plug-In . SVG Version: 6.00 Build 0)  -->
<svg version="1.1" id="Layer_1" xmlns="http://www.w3.org/2000/svg" xmlns:xlink="http://www.w3.org/1999/xlink" x="0px" y="0px"
	 viewBox="0 0 136.1 47.9" style="enable-background:new 0 0 136.1 47.9;" xml:space="preserve">
<style type="text/css">
	.st0{fill:#98BA6E;}
</style>
<g id="Group_526" transform="translate(-209 -32.167)">
	<g id="Group_527">
		<path id="Path_404" class="st0" d="M280.6,62.1c-1.4,0.6-3,0.9-4.6,0.8c-6.2,0-9.4-3.9-9.4-9c0-6.1,4.4-9.5,9.8-9.5
			c1.5-0.1,3,0.2,4.5,0.8l-0.9,3.3c-1.1-0.5-2.3-0.7-3.5-0.7c-3.2,0-5.7,2-5.7,5.9c0,3.6,2.2,5.8,5.7,5.8c1.2,0,2.4-0.2,3.5-0.6
			L280.6,62.1z"/>
		<path id="Path_405" class="st0" d="M283.2,43.6h4.1v19h-4.1V43.6z"/>
		<path id="Path_406" class="st0" d="M301.4,59.4c0,1.1,0.1,2.1,0.2,3.2h-3.7l-0.2-1.3h-0.1c-0.9,1.1-2.3,1.7-3.8,1.6
			c-2.2,0.1-4.1-1.5-4.3-3.7c0-0.1,0-0.2,0-0.3c0-3.4,3.1-5,7.6-5v-0.2c0-0.7-0.4-1.7-2.4-1.7c-1.3,0-2.5,0.4-3.6,1l-0.8-2.6
			c1.6-0.8,3.3-1.2,5.1-1.2c4.4,0,5.7,2.6,5.7,5.6L301.4,59.4L301.4,59.4z M297.5,56.5c-2.2,0-3.8,0.5-3.8,2.1
			c-0.1,0.8,0.5,1.5,1.3,1.6c0.1,0,0.2,0,0.3,0c0.9,0,1.8-0.6,2.1-1.5c0.1-0.2,0.1-0.5,0.1-0.7L297.5,56.5L297.5,56.5z"/>
		<path id="Path_407" class="st0" d="M306.6,48c-1.1,0.1-2-0.8-2.1-1.9c0-0.1,0-0.1,0-0.2c0-1.1,0.9-2.1,2-2.1c0.1,0,0.1,0,0.2,0
			c1.2,0,2.1,0.9,2.2,2c0,0,0,0,0,0C308.9,47.1,307.9,48,306.6,48C306.7,48,306.7,48,306.6,48L306.6,48z M304.7,62.6V49.5h4.1v13.1
			L304.7,62.6z"/>
		<path id="Path_408" class="st0" d="M312,53.7c0-1.6-0.1-3-0.1-4.2h3.5l0.2,1.8h0.1c0.9-1.3,2.4-2.1,4-2.1c1.5-0.1,3,0.9,3.6,2.3
			h0.1c0.5-0.6,1-1.2,1.7-1.6c0.8-0.4,1.6-0.6,2.5-0.6c2.5,0,4.5,1.8,4.5,5.6v7.7h-4v-7.1c0-1.9-0.6-3-1.9-3c-0.9,0-1.6,0.6-1.9,1.4
			c-0.1,0.3-0.1,0.7-0.1,1v7.6h-4v-7.3c0-1.6-0.6-2.8-1.9-2.8c-0.9,0-1.7,0.6-1.9,1.5c-0.1,0.4-0.2,0.7-0.2,1.1v7.6h-4v-9H312z"/>
		<path id="Path_409" class="st0" d="M335,59c1.1,0.6,2.2,0.9,3.5,1c1.2,0,1.8-0.4,1.8-1.1c0-0.7-0.4-1-1.9-1.5
			c-2.8-0.9-3.8-2.4-3.8-3.9c0-2.5,2.1-4.3,5.4-4.3c1.3,0,2.5,0.3,3.7,0.8l-0.7,2.8c-0.9-0.4-1.9-0.7-2.9-0.7c-1,0-1.6,0.4-1.6,1.1
			c0,0.6,0.5,1,2.1,1.5c2.5,0.9,3.5,2.1,3.6,4.1c0,2.5-1.9,4.3-5.6,4.3c-1.5,0-2.9-0.3-4.3-0.9L335,59z"/>
	</g>
	<g id="Group_528" transform="translate(209 32.17)">
		<path id="Path_410" class="st0" d="M24.8,0C12.6,0,2.7,9.9,2.6,22.1c0,0,0,0,0,0.1c0,0.7,0,1.3,0.1,2l1.5-0.1
			c-0.1-0.6-0.1-1.3-0.1-1.9c0-11.4,9.3-20.6,20.7-20.6c11.4,0,20.6,9.3,20.6,20.7c0,11.1-8.8,20.2-19.9,20.6l1.7-1.7l-1.1-1.1
			l-3.7,3.7l3.7,3.7l1.1-1.1l-1.9-1.9c12.3-0.2,22-10.2,21.9-22.5c0-12.2-9.9-22-22.1-22C25,0,24.9,0,24.8,0z"/>
		<path id="Path_411" class="st0" d="M39.2,9.3h-28v14.1h28V9.3z M37.6,21.8H12.7V10.9h25L37.6,21.8z"/>
		<path id="Path_412" class="st0" d="M25.2,19.5c1.7,0,3.1-1.4,3.1-3.1c0-1.7-1.4-3.1-3.1-3.1c-1.7,0-3.1,1.4-3.1,3.1l0,0
			C22.1,18.1,23.5,19.5,25.2,19.5C25.2,19.5,25.2,19.5,25.2,19.5z M25.2,14.8c0.9,0,1.6,0.7,1.6,1.6s-0.7,1.6-1.6,1.6
			c-0.9,0-1.6-0.7-1.6-1.6l0,0l0,0C23.6,15.5,24.3,14.8,25.2,14.8C25.2,14.8,25.2,14.8,25.2,14.8z"/>
		<path id="Path_413" class="st0" d="M15.8,14.1h1.6v-1.6h-3.1v3.1h1.6L15.8,14.1z"/>
		<path id="Path_414" class="st0" d="M17.4,18.7h-1.6v-1.6h-1.6v3.1h3.1L17.4,18.7z"/>
		<path id="Path_415" class="st0" d="M36.1,17.1h-1.6v1.6H33v1.6H36L36.1,17.1z"/>
		<path id="Path_416" class="st0" d="M34.5,15.6h1.6v-3.1H33v1.6h1.6V15.6z"/>
		<path id="Path_417" class="st0" d="M18.2,15.6h2.4v1.6h-2.4V15.6z"/>
		<path id="Path_418" class="st0" d="M29.9,15.6h2.4v1.6h-2.4V15.6z"/>
		<path id="Path_419" class="st0" d="M4.9,33.5h1.6v2.4H4.9V33.5z"/>
		<path id="Path_420" class="st0" d="M39.2,31.9c0-1.6-1.3-2.9-2.9-2.9l0,0c-0.3,0-0.5,0-0.8,0.1l-9.4,2.8c-0.1,0-0.2,0.1-0.3,0
			l-2.2-0.4c1.4-0.8,2-2.7,1.3-4.2c-0.5-1-1.6-1.7-2.8-1.6h-9.8c-0.4,0-0.8,0.1-1.2,0.3l-1.6,1v-1.3H0.3V39h9.3v-2l7.7,3.2
			c0.5,0.2,1.1,0.2,1.6,0.1l18.2-5.6C38.4,34.3,39.2,33.2,39.2,31.9z M8.1,37.4H1.8V27.2h3.1v4.7h1.6v-4.7h1.6V37.4z M18.5,38.8
			c-0.1,0.1-0.3,0.1-0.5,0l-8.3-3.5v-6.6l2.4-1.3c0.1-0.1,0.3-0.1,0.4-0.1h9.6c0.9,0,1.6,0.7,1.6,1.6c0,0.9-0.7,1.6-1.6,1.6h-5.4
			v0.8l-0.2,0.8l8.9,1.5c0.3,0.1,0.7,0,1-0.1l9.4-2.8c0.7-0.2,1.5,0.2,1.7,0.9l0,0c0.2,0.6-0.1,1.3-0.7,1.6c0,0,0,0-0.1,0l0,0
			L18.5,38.8z"/>
	</g>
</g>
</svg>
