<svg xmlns="http://www.w3.org/2000/svg" width="253.519" height="35.295" viewBox="0 0 253.519 35.295">
  <g id="Group_786" data-name="Group 786" transform="translate(-207 -33)">
    <path id="Path_677" data-name="Path 677" d="M1.674-18.2V0H6.561V-18.2Zm8.64,2.43v2.484H8.667V-9.72h1.647v4.671c0,2.025.432,3.321,1.242,4.131A4.715,4.715,0,0,0,14.877.3a9.182,9.182,0,0,0,2.889-.378v-3.7a3.687,3.687,0,0,1-1.161.108c-1.188,0-1.539-.648-1.539-2.241V-9.72H17.82v-3.564H15.066v-3.78ZM32.1-4.941a8.631,8.631,0,0,0,.189-1.836c0-3.645-1.836-6.8-6.129-6.8-4.887,0-6.885,4-6.885,7.074,0,4.212,2.646,6.8,7.317,6.8A13.732,13.732,0,0,0,31.563-.54l-.621-3.267a11.728,11.728,0,0,1-3.618.513c-1.728,0-3.24-.594-3.4-1.647ZM23.868-8.235a2.185,2.185,0,0,1,2.052-2.16,1.953,1.953,0,0,1,1.89,2.16ZM34.506,0h4.725V-7.587a3.185,3.185,0,0,1,.135-1,1.628,1.628,0,0,1,1.485-1.08c1.107,0,1.566.972,1.566,2.457V0h4.725V-7.56a2.921,2.921,0,0,1,.135-.972,1.515,1.515,0,0,1,1.485-1.134c1.08,0,1.566.945,1.566,2.592V0h4.725V-7.8c0-3.7-1.647-5.778-4.509-5.778a5.024,5.024,0,0,0-2.349.54,5.41,5.41,0,0,0-1.836,1.593h-.054a3.661,3.661,0,0,0-3.591-2.133,4.644,4.644,0,0,0-3.942,1.971h-.108l-.189-1.674H34.4c.054,1.242.108,2.754.108,4.536ZM74.952-11.286H68.418V-14.2h6.939v-4H63.531V0h12.2V-4H68.418V-7.344h6.534ZM78.246,0h4.887V-7.533a2.645,2.645,0,0,1,.135-.972,1.678,1.678,0,0,1,1.593-1.161c1.188,0,1.7.891,1.7,2.43V0h4.887V-7.83c0-3.645-1.7-5.751-4.806-5.751a4.832,4.832,0,0,0-4,2h-.081l-.216-1.7H78.138c.054,1.242.108,2.754.108,4.536ZM94.419,0h4.887V-6.561A6.862,6.862,0,0,1,99.36-7.4c.27-1.08,1.242-1.674,2.673-1.674a5.281,5.281,0,0,1,1.242.135V-13.5a3.631,3.631,0,0,0-.972-.081,3.789,3.789,0,0,0-3.537,2.7h-.108l-.189-2.4H94.311c.081,1.107.108,2.376.108,4.482Zm15.66,0V-13.284h-4.887V0Zm-2.43-19.251a2.286,2.286,0,0,0-2.484,2.322,2.287,2.287,0,0,0,2.457,2.295,2.318,2.318,0,0,0,2.511-2.295A2.3,2.3,0,0,0,107.649-19.251Zm15.12,15.39a5.7,5.7,0,0,1-2.133.351,3,3,0,0,1-3.213-3.213A2.941,2.941,0,0,1,120.5-9.882a5.5,5.5,0,0,1,2.106.324l.675-3.564a9.962,9.962,0,0,0-3.051-.459c-5.184,0-7.8,3.24-7.8,7.047,0,4.212,2.781,6.8,7.209,6.8A9.358,9.358,0,0,0,123.282-.3ZM125.28,0h4.887V-7.83a2.61,2.61,0,0,1,.108-.783,1.654,1.654,0,0,1,1.593-1.053c1.215,0,1.728.945,1.728,2.511V0h4.887V-7.695c0-3.753-1.674-5.886-4.671-5.886a4.641,4.641,0,0,0-2.025.459,4.629,4.629,0,0,0-1.566,1.242h-.054v-7.29H125.28Zm16.2,0h4.725V-7.587a3.185,3.185,0,0,1,.135-1,1.628,1.628,0,0,1,1.485-1.08c1.107,0,1.566.972,1.566,2.457V0h4.725V-7.56a2.921,2.921,0,0,1,.135-.972,1.515,1.515,0,0,1,1.485-1.134c1.08,0,1.566.945,1.566,2.592V0h4.725V-7.8c0-3.7-1.647-5.778-4.509-5.778a5.024,5.024,0,0,0-2.349.54,5.41,5.41,0,0,0-1.836,1.593h-.054a3.661,3.661,0,0,0-3.591-2.133,4.644,4.644,0,0,0-3.942,1.971h-.108l-.189-1.674h-4.077c.054,1.242.108,2.754.108,4.536Zm35.667-4.941a8.632,8.632,0,0,0,.189-1.836c0-3.645-1.836-6.8-6.129-6.8-4.887,0-6.885,4-6.885,7.074,0,4.212,2.646,6.8,7.317,6.8a13.732,13.732,0,0,0,4.968-.837l-.621-3.267a11.729,11.729,0,0,1-3.618.513c-1.728,0-3.24-.594-3.4-1.647Zm-8.235-3.294a2.185,2.185,0,0,1,2.052-2.16,1.953,1.953,0,0,1,1.89,2.16ZM179.523,0h4.887V-7.533a2.645,2.645,0,0,1,.135-.972,1.678,1.678,0,0,1,1.593-1.161c1.188,0,1.7.891,1.7,2.43V0h4.887V-7.83c0-3.645-1.7-5.751-4.806-5.751a4.832,4.832,0,0,0-4,2h-.081l-.216-1.7h-4.212c.054,1.242.108,2.754.108,4.536ZM196.1-15.768v2.484h-1.647V-9.72H196.1v4.671c0,2.025.432,3.321,1.242,4.131A4.715,4.715,0,0,0,200.664.3a9.182,9.182,0,0,0,2.889-.378v-3.7a3.687,3.687,0,0,1-1.161.108c-1.188,0-1.539-.648-1.539-2.241V-9.72h2.754v-3.564h-2.754v-3.78Z" transform="translate(256.912 61.903)" fill="#67a4b1"/>
    <g id="blueprint" transform="translate(207 33)">
      <path id="Path_136" data-name="Path 136" d="M210.46,40.342h-6.245l3.729-4.151a1.16,1.16,0,0,0-.088-1.638l-1.6-1.44a1.161,1.161,0,0,0-1.638.088L198.2,40.342H187.034a.585.585,0,0,0,0,1.169h10.115l-2.608,2.9a1.153,1.153,0,0,0-.3.837c0,.037.006.072.011.108l-.9,2.424a.929.929,0,0,0,1.286,1.155l2.316-1.151.044,0,.063,0a1.153,1.153,0,0,0,.8-.383l5.294-5.894h7.295a.2.2,0,0,1,.195.195V64.229a.2.2,0,0,1-.195.195h-4.253a.585.585,0,1,0,0,1.169h4.253a1.366,1.366,0,0,0,1.364-1.364V41.706A1.365,1.365,0,0,0,210.46,40.342Zm-3.391-4.926-.694.773-1.59-1.428.694-.773ZM204,35.631l.36.323-8.586,9.558-.36-.324Zm-8.91,10.838.675.607-1.1.548Zm1.914.148-.36-.323,8.586-9.558.36.323Zm0,0" transform="translate(-171.917 -30.297)" fill="#67a4b1"/>
      <path id="Path_137" data-name="Path 137" d="M31.744,34.626H5.452a4.287,4.287,0,0,1-4.283-4.283v-.309a4.287,4.287,0,0,1,4.282-4.282h1.2a1.365,1.365,0,0,0,1.364-1.364V11.714h4.554a.585.585,0,1,0,0-1.169H8.017V8.515a.585.585,0,1,0-1.169,0V24.388a.2.2,0,0,1-.195.195h-1.2a5.445,5.445,0,0,0-4.282,2.082V5.952A4.287,4.287,0,0,1,5.452,1.669h1.2a.2.2,0,0,1,.195.195V5.969a.585.585,0,0,0,1.169,0V1.864A1.365,1.365,0,0,0,6.653.5h-1.2A5.458,5.458,0,0,0,0,5.952V30.344A5.458,5.458,0,0,0,5.452,35.8H31.744a.585.585,0,0,0,0-1.169Zm0,0" transform="translate(0 -0.5)" fill="#67a4b1"/>
      <path id="Path_138" data-name="Path 138" d="M308.375,208.555a4.5,4.5,0,0,0-4.486,4.225H301.2a.585.585,0,0,0-.585.585v6.678a.585.585,0,0,0,.585.585h6.678a.584.584,0,0,0,.585-.585v-2.5a4.494,4.494,0,0,0-.085-8.988Zm-1.084,7.639a3.338,3.338,0,0,1-2.117-2.245h2.117Zm-5.509,3.264v-5.508h2.188a4.509,4.509,0,0,0,3.32,3.463v2.045Zm6.678-3.084v-3.009a.585.585,0,0,0-.585-.585h-2.815a3.326,3.326,0,1,1,3.4,3.594Zm0,0" transform="translate(-277.183 -192.338)" fill="#67a4b1"/>
      <path id="Path_139" data-name="Path 139" d="M421.143,329.078a.585.585,0,0,0,0,1.169h1.3a.585.585,0,1,0,0-1.169Zm0,0" transform="translate(-387.779 -303.468)" fill="#67a4b1"/>
      <path id="Path_140" data-name="Path 140" d="M423.028,349.018a.585.585,0,0,0-.585-.585h-1.3a.585.585,0,0,0,0,1.169h1.3A.584.584,0,0,0,423.028,349.018Zm0,0" transform="translate(-387.779 -321.315)" fill="#67a4b1"/>
      <path id="Path_141" data-name="Path 141" d="M130.085,191.736h.935a.585.585,0,0,0,0-1.169h-.935a.585.585,0,0,0,0,1.169Zm0,0" transform="translate(-119.406 -175.752)" fill="#67a4b1"/>
      <path id="Path_142" data-name="Path 142" d="M130.085,213.587H134.6a.585.585,0,1,0,0-1.169h-4.512a.585.585,0,1,0,0,1.169Zm0,0" transform="translate(-119.406 -195.9)" fill="#67a4b1"/>
      <path id="Path_143" data-name="Path 143" d="M175.979,191.736h.935a.585.585,0,0,0,0-1.169h-.935a.585.585,0,1,0,0,1.169Zm0,0" transform="translate(-161.724 -175.752)" fill="#67a4b1"/>
      <path id="Path_144" data-name="Path 144" d="M222.809,190.566h-.935a.585.585,0,1,0,0,1.169h.935a.585.585,0,0,0,0-1.169Zm0,0" transform="translate(-204.041 -175.752)" fill="#67a4b1"/>
      <path id="Path_145" data-name="Path 145" d="M130.085,235.275H134.6a.585.585,0,1,0,0-1.169h-4.512a.585.585,0,0,0,0,1.169Zm0,0" transform="translate(-119.406 -215.897)" fill="#67a4b1"/>
      <path id="Path_146" data-name="Path 146" d="M129.5,256.374a.585.585,0,0,0,.585.585h7.154a.585.585,0,1,0,0-1.169h-7.154A.585.585,0,0,0,129.5,256.374Zm0,0" transform="translate(-119.406 -235.891)" fill="#67a4b1"/>
      <path id="Path_147" data-name="Path 147" d="M138.759,278.061a.585.585,0,0,0-.585-.585h-8.09a.585.585,0,1,0,0,1.169h8.09A.584.584,0,0,0,138.759,278.061Zm0,0" transform="translate(-119.406 -255.888)" fill="#67a4b1"/>
      <path id="Path_148" data-name="Path 148" d="M132.28,313a.585.585,0,0,0-.585-.585h-1.611a.585.585,0,0,0-.585.585v1.611a.585.585,0,0,0,.585.585H131.7a.585.585,0,0,0,.585-.585Zm-1.169,1.026h-.442v-.442h.442Zm0,0" transform="translate(-119.406 -288.106)" fill="#67a4b1"/>
      <path id="Path_149" data-name="Path 149" d="M181.866,313a.585.585,0,0,0-.585-.585H179.67a.585.585,0,0,0-.585.585v1.611a.585.585,0,0,0,.585.585h1.611a.585.585,0,0,0,.585-.585Zm-1.169,1.026h-.442v-.442h.442Zm0,0" transform="translate(-165.127 -288.106)" fill="#67a4b1"/>
      <path id="Path_150" data-name="Path 150" d="M231.456,313a.585.585,0,0,0-.585-.585H229.26a.584.584,0,0,0-.585.585v1.611a.584.584,0,0,0,.585.585h1.611a.585.585,0,0,0,.585-.585Zm-1.169,1.026h-.442v-.442h.442Zm0,0" transform="translate(-210.852 -288.106)" fill="#67a4b1"/>
      <path id="Path_151" data-name="Path 151" d="M131.7,365.086h-1.611a.585.585,0,0,0-.585.585v1.611a.585.585,0,0,0,.585.585H131.7a.585.585,0,0,0,.585-.585V365.67A.585.585,0,0,0,131.7,365.086Zm-.585,1.611h-.442v-.442h.442Zm0,0" transform="translate(-119.406 -336.669)" fill="#67a4b1"/>
      <path id="Path_152" data-name="Path 152" d="M181.281,365.086H179.67a.585.585,0,0,0-.585.585v1.611a.585.585,0,0,0,.585.585h1.611a.585.585,0,0,0,.585-.585V365.67A.585.585,0,0,0,181.281,365.086ZM180.7,366.7h-.442v-.442h.442Zm0,0" transform="translate(-165.127 -336.669)" fill="#67a4b1"/>
      <path id="Path_153" data-name="Path 153" d="M229.26,367.862h1.611a.585.585,0,0,0,.585-.585v-1.611a.585.585,0,0,0-.585-.585H229.26a.585.585,0,0,0-.585.585v1.611A.584.584,0,0,0,229.26,367.862Zm.585-1.611h.442v.441h-.442Zm0,0" transform="translate(-210.852 -336.665)" fill="#67a4b1"/>
    </g>
  </g>
</svg>
