<svg xmlns="http://www.w3.org/2000/svg" width="284.659" height="36.903" viewBox="0 0 284.659 36.903">
  <g id="Group_448" data-name="Group 448" transform="translate(-206 -15.5)">
    <path id="Path_396" data-name="Path 396" d="M1.647-18.2v9.936C1.647-2.43,4.293.3,9.261.3c5.1,0,7.911-2.835,7.911-8.451V-18.2H12.285V-7.857c0,2.889-.945,4.293-2.889,4.293-1.917,0-2.862-1.539-2.862-4.293V-18.2ZM19.17-.648A10.45,10.45,0,0,0,23.733.3c4.1,0,6.075-1.917,6.075-4.455-.027-1.917-1.026-3.267-3.645-4.131-1.566-.513-2-.783-2-1.215,0-.54.486-.756,1.323-.756a7.7,7.7,0,0,1,2.943.729l.783-3.294a10.391,10.391,0,0,0-3.942-.756c-3.51,0-5.778,1.917-5.778,4.563-.027,1.539.972,3.132,3.915,4.077,1.431.432,1.728.648,1.728,1.134,0,.513-.405.729-1.458.729a8.753,8.753,0,0,1-3.672-1ZM44.226-4.941a8.631,8.631,0,0,0,.189-1.836c0-3.645-1.836-6.8-6.129-6.8-4.887,0-6.885,4-6.885,7.074C31.4-2.3,34.047.3,38.718.3A13.732,13.732,0,0,0,43.686-.54l-.621-3.267a11.728,11.728,0,0,1-3.618.513c-1.728,0-3.24-.594-3.4-1.647ZM35.991-8.235a2.185,2.185,0,0,1,2.052-2.16,1.953,1.953,0,0,1,1.89,2.16ZM46.6,0h4.887V-6.561a6.862,6.862,0,0,1,.054-.837c.27-1.08,1.242-1.674,2.673-1.674a5.281,5.281,0,0,1,1.242.135V-13.5a3.631,3.631,0,0,0-.972-.081,3.789,3.789,0,0,0-3.537,2.7h-.108l-.189-2.4H46.494c.081,1.107.108,2.376.108,4.482ZM78.651,0h4.725l-.918-18.2h-6.4l-1.377,4.86c-.54,1.917-1.134,4.482-1.647,6.7h-.081c-.378-2.214-.918-4.644-1.431-6.669L70.335-18.2H63.774L62.64,0h4.482l.3-6.507c.081-2.079.162-4.779.27-7.344h.054c.432,2.484.972,5.184,1.458,7.155L70.713-.378H74.52l1.809-6.345c.594-2,1.35-4.725,1.917-7.128h.081c0,2.835.027,5.265.108,7.344ZM97.983-7.722c0-3.321-1.566-5.859-6.129-5.859a11.81,11.81,0,0,0-5.508,1.215l.837,3.051a8.432,8.432,0,0,1,3.753-.972c1.782,0,2.187.594,2.187,1.134v.108c-4.509,0-7.722,1.593-7.722,5.157A4.175,4.175,0,0,0,89.8.3a4.673,4.673,0,0,0,3.672-1.458h.108L93.825,0H98.2a19.373,19.373,0,0,1-.216-3.24Zm-4.7,2.727a2.632,2.632,0,0,1-.054.675,1.809,1.809,0,0,1-1.674,1.242A1.21,1.21,0,0,1,90.18-4.347c0-1.188,1.107-1.728,3.1-1.728ZM100.98,0h4.887V-7.533A2.645,2.645,0,0,1,106-8.505,1.678,1.678,0,0,1,107.6-9.666c1.188,0,1.7.891,1.7,2.43V0h4.887V-7.83c0-3.645-1.7-5.751-4.806-5.751a4.832,4.832,0,0,0-4,2H105.3l-.216-1.7h-4.212c.054,1.242.108,2.754.108,4.536Zm27.972-7.722c0-3.321-1.566-5.859-6.129-5.859a11.81,11.81,0,0,0-5.508,1.215l.837,3.051a8.432,8.432,0,0,1,3.753-.972c1.782,0,2.187.594,2.187,1.134v.108c-4.509,0-7.722,1.593-7.722,5.157A4.175,4.175,0,0,0,120.771.3a4.673,4.673,0,0,0,3.672-1.458h.108L124.794,0h4.374a19.374,19.374,0,0,1-.216-3.24Zm-4.7,2.727a2.632,2.632,0,0,1-.054.675,1.809,1.809,0,0,1-1.674,1.242,1.21,1.21,0,0,1-1.377-1.269c0-1.188,1.107-1.728,3.1-1.728Zm20.79-4.185c0-2.133.054-3.267.108-4.1h-4.185l-.162,1.431h-.054a3.757,3.757,0,0,0-3.429-1.728c-3.321,0-6.021,2.781-6.021,6.966,0,3.861,2.349,6.453,5.589,6.453a4.144,4.144,0,0,0,3.321-1.485h.054v.594a2.8,2.8,0,0,1-3.078,3,8.466,8.466,0,0,1-3.834-.972l-.918,3.672a11.342,11.342,0,0,0,4.941,1A8.366,8.366,0,0,0,142.965,4c1.62-1.4,2.079-3.618,2.079-5.94Zm-4.86,3.159a4.053,4.053,0,0,1-.081,1A1.7,1.7,0,0,1,138.4-3.7c-1.35,0-2.16-1.269-2.16-3,0-2.106,1-3.24,2.16-3.24a1.713,1.713,0,0,1,1.728,1.512,4.433,4.433,0,0,1,.054.621Zm20.034,1.08a8.632,8.632,0,0,0,.189-1.836c0-3.645-1.836-6.8-6.129-6.8-4.887,0-6.885,4-6.885,7.074,0,4.212,2.646,6.8,7.317,6.8a13.732,13.732,0,0,0,4.968-.837l-.621-3.267a11.729,11.729,0,0,1-3.618.513c-1.728,0-3.24-.594-3.4-1.647Zm-8.235-3.294a2.185,2.185,0,0,1,2.052-2.16,1.953,1.953,0,0,1,1.89,2.16ZM162.621,0h4.725V-7.587a3.185,3.185,0,0,1,.135-1,1.628,1.628,0,0,1,1.485-1.08c1.107,0,1.566.972,1.566,2.457V0h4.725V-7.56a2.921,2.921,0,0,1,.135-.972,1.515,1.515,0,0,1,1.485-1.134c1.08,0,1.566.945,1.566,2.592V0h4.725V-7.8c0-3.7-1.647-5.778-4.509-5.778a5.024,5.024,0,0,0-2.349.54,5.41,5.41,0,0,0-1.836,1.593h-.054a3.661,3.661,0,0,0-3.591-2.133,4.644,4.644,0,0,0-3.942,1.971h-.108l-.189-1.674h-4.077c.054,1.242.108,2.754.108,4.536Zm35.667-4.941a8.632,8.632,0,0,0,.189-1.836c0-3.645-1.836-6.8-6.129-6.8-4.887,0-6.885,4-6.885,7.074,0,4.212,2.646,6.8,7.317,6.8a13.732,13.732,0,0,0,4.968-.837l-.621-3.267a11.729,11.729,0,0,1-3.618.513c-1.728,0-3.24-.594-3.4-1.647Zm-8.235-3.294a2.185,2.185,0,0,1,2.052-2.16A1.953,1.953,0,0,1,194-8.235ZM200.664,0h4.887V-7.533a2.645,2.645,0,0,1,.135-.972,1.678,1.678,0,0,1,1.593-1.161c1.188,0,1.7.891,1.7,2.43V0h4.887V-7.83c0-3.645-1.7-5.751-4.806-5.751a4.832,4.832,0,0,0-4,2h-.081l-.216-1.7h-4.212c.054,1.242.108,2.754.108,4.536Zm16.578-15.768v2.484H215.6V-9.72h1.647v4.671c0,2.025.432,3.321,1.242,4.131A4.715,4.715,0,0,0,221.8.3a9.182,9.182,0,0,0,2.889-.378v-3.7a3.687,3.687,0,0,1-1.161.108c-1.188,0-1.539-.648-1.539-2.241V-9.72h2.754v-3.564h-2.754v-3.78Z" transform="translate(265.911 45.403)" fill="#7792a5"/>
    <g id="team" transform="translate(206 -52.566)">
      <g id="Group_275" data-name="Group 275" transform="translate(38.56 83.812)">
        <g id="Group_274" data-name="Group 274">
          <path id="Path_221" data-name="Path 221" d="M398.541,229.314a14.367,14.367,0,0,0-5.053-.865.736.736,0,1,0,0,1.473,12.715,12.715,0,0,1,4.395.71.736.736,0,0,0,.659-1.317Z" transform="translate(-392.751 -228.449)" fill="#7792a5"/>
        </g>
      </g>
      <g id="Group_277" data-name="Group 277" transform="translate(0 68.066)">
        <g id="Group_276" data-name="Group 276" transform="translate(0 0)">
          <path id="Path_222" data-name="Path 222" d="M48.021,95.161l-3.041-.869a.309.309,0,0,1-.223-.3V92.982a5.534,5.534,0,0,0,.7-.577,5.417,5.417,0,0,0,1.658-3.919v-1.4l.294-.588a4.7,4.7,0,0,0,.493-2.09V80.612a.736.736,0,0,0-.736-.736H40.084a4.678,4.678,0,0,0-4.673,4.673v.044a3.906,3.906,0,0,0,.41,1.738l.377.754v1.2a5.745,5.745,0,0,0,2.362,4.645V94c0,.164,0,.232-.608.406l-1.484.424-4.293-1.561a.735.735,0,0,0-.2-.564L30.6,91.261V88.841c.145-.119.288-.242.426-.372a8.642,8.642,0,0,0,2.723-6.283V80.255a8.512,8.512,0,0,0,.787-3.579V68.8a.736.736,0,0,0-.736-.736H22.781A7.043,7.043,0,0,0,15.747,75.1v1.575a8.512,8.512,0,0,0,.787,3.579v1.662a9,9,0,0,0,3.149,6.867v2.476L18.312,92.7a.735.735,0,0,0-.2.564L13.58,94.913a3.861,3.861,0,0,0-.91.477l-.711-.356a5.624,5.624,0,0,0,2.821-2.283.736.736,0,0,0,0-.659,13.081,13.081,0,0,1-.647-4.571c-.017-.521-.033-1.012-.065-1.45a6.405,6.405,0,0,0-6.246-6.2,6.405,6.405,0,0,0-6.246,6.2c-.031.438-.047.93-.065,1.45a13.082,13.082,0,0,1-.647,4.571.736.736,0,0,0,0,.659,5.623,5.623,0,0,0,2.824,2.281l-1.976.988A3.082,3.082,0,0,0,0,98.792v5.44a.736.736,0,0,0,1.473,0v-5.44a1.617,1.617,0,0,1,.9-1.454l2.461-1.23.856.813a3.1,3.1,0,0,0,4.269,0l.856-.813.8.4a3.878,3.878,0,0,0-.592,2.056v5.667a.736.736,0,0,0,1.473,0V98.565A2.42,2.42,0,0,1,14.084,96.3L18.86,94.56l1.988,2.983a1.518,1.518,0,0,0,1.118.671q.076.008.152.007a1.518,1.518,0,0,0,1.076-.446l1.213-1.213v7.67a.736.736,0,0,0,1.473,0v-7.67l1.213,1.213a1.517,1.517,0,0,0,1.076.446q.076,0,.152-.007a1.518,1.518,0,0,0,1.118-.671l1.989-2.983L36.2,96.3a2.42,2.42,0,0,1,1.588,2.268v5.667a.736.736,0,1,0,1.473,0V98.565a3.893,3.893,0,0,0-1.089-2.694l.182-.052a4.038,4.038,0,0,0,.685-.247l1.88,1.88v6.781a.736.736,0,1,0,1.473,0V97.451l1.867-1.867a1.751,1.751,0,0,0,.313.124l3.041.869A1.633,1.633,0,0,1,48.8,98.141v6.091a.736.736,0,1,0,1.473,0V98.141A3.112,3.112,0,0,0,48.021,95.161Zm-43.3-1.3a5.294,5.294,0,0,1-2.363-1.517,8.117,8.117,0,0,0,.42-1.763,5.491,5.491,0,0,0,1.943,2.4Zm4.218,1.993a1.625,1.625,0,0,1-2.24,0L6.018,95.2a1.524,1.524,0,0,0,.179-.719V93.7a5.476,5.476,0,0,0,3.251,0v.784a1.524,1.524,0,0,0,.179.719Zm-1.12-3.38a3.992,3.992,0,0,1-3.988-3.988.732.732,0,0,0-.857-.726c0-.063,0-.127.006-.189.016-.506.032-.985.061-1.395a5.467,5.467,0,0,1,1.489-3.433,4.575,4.575,0,0,1,6.576,0A5.467,5.467,0,0,1,12.6,86.176c.029.41.045.888.062,1.394l0,.131a6.616,6.616,0,0,0-3.637-2.658,9.241,9.241,0,0,0-2.8-.444.736.736,0,0,0-.51.225L4.389,86.2a.736.736,0,0,0,1.06,1.022l1.106-1.146c.952.047,4.015.4,5.206,3.026A3.978,3.978,0,0,1,7.823,92.473Zm3.1,1.39v-.878a5.447,5.447,0,0,0,1.944-2.4,8.106,8.106,0,0,0,.419,1.759A5.319,5.319,0,0,1,10.92,93.863Zm7.086-11.946V80.09a.737.737,0,0,0-.073-.32,7.063,7.063,0,0,1-.714-3.094V75.1a5.569,5.569,0,0,1,5.562-5.562H33.068v7.137a7.063,7.063,0,0,1-.714,3.094.736.736,0,0,0-.073.32v2.1A7.069,7.069,0,0,1,30.023,87.4a7.327,7.327,0,0,1-.565.479l-.013.009a7.08,7.08,0,0,1-4.778,1.425A7.293,7.293,0,0,1,18.007,81.917Zm4.146,14.816a.051.051,0,0,1-.078-.008l-2.29-3.435.737-.774L24,94.891Zm2.991-2.842-3.988-2.726V89.792a8.291,8.291,0,0,0,3.416.986q.291.019.579.019a8.529,8.529,0,0,0,3.98-.975v1.345Zm3.069,2.834a.047.047,0,0,1-.037.022.045.045,0,0,1-.041-.015l-1.843-1.843,3.474-2.375.737.774ZM41.659,96.1l-1.671-1.671A2.02,2.02,0,0,0,40.033,94v-.311a5.163,5.163,0,0,0,1.458.258l.17,0a5.47,5.47,0,0,0,1.624-.246V94a1.76,1.76,0,0,0,.053.429Zm2.777-4.757a3.958,3.958,0,0,1-2.9,1.124,4.122,4.122,0,0,1-3.864-4.184V86.911a.736.736,0,0,0-.078-.329l-.455-.91a2.426,2.426,0,0,1-.255-1.079v-.044a3.2,3.2,0,0,1,3.2-3.2h6.35v3.058a3.217,3.217,0,0,1-.338,1.431l-.372.743a.736.736,0,0,0-.078.329v1.575A3.956,3.956,0,0,1,44.436,91.347Z" transform="translate(0 -68.066)" fill="#7792a5"/>
        </g>
      </g>
      <g id="Group_279" data-name="Group 279" transform="translate(45.646 98.772)">
        <g id="Group_278" data-name="Group 278" transform="translate(0 0)">
          <path id="Path_223" data-name="Path 223" d="M465.659,380.814a.736.736,0,0,0-.736.736v4.724a.736.736,0,1,0,1.473,0V381.55A.736.736,0,0,0,465.659,380.814Z" transform="translate(-464.923 -380.814)" fill="#7792a5"/>
        </g>
      </g>
      <g id="Group_281" data-name="Group 281" transform="translate(3.149 99.745)">
        <g id="Group_280" data-name="Group 280" transform="translate(0 0)">
          <path id="Path_224" data-name="Path 224" d="M32.813,390.728a.736.736,0,0,0-.736.736v3.751a.736.736,0,0,0,1.473,0v-3.751A.736.736,0,0,0,32.813,390.728Z" transform="translate(-32.077 -390.728)" fill="#7792a5"/>
        </g>
      </g>
      <g id="Group_283" data-name="Group 283" transform="translate(18.896 74.756)">
        <g id="Group_282" data-name="Group 282">
          <path id="Path_225" data-name="Path 225" d="M204.74,138.389c-2.785-2.785-8.612-2.253-10.988-1.894A1.512,1.512,0,0,0,192.46,138v1.7a.736.736,0,0,0,1.473,0V138a.049.049,0,0,1,.038-.05,23.263,23.263,0,0,1,4.784-.234c2.3.153,3.959.729,4.943,1.713a.736.736,0,1,0,1.041-1.041Z" transform="translate(-192.46 -136.203)" fill="#7792a5"/>
        </g>
      </g>
      <g id="Group_285" data-name="Group 285" transform="translate(15.747 100.346)">
        <g id="Group_284" data-name="Group 284" transform="translate(0 0)">
          <path id="Path_226" data-name="Path 226" d="M161.12,396.853a.736.736,0,0,0-.736.736v3.149a.736.736,0,1,0,1.473,0v-3.149A.736.736,0,0,0,161.12,396.853Z" transform="translate(-160.384 -396.853)" fill="#7792a5"/>
        </g>
      </g>
      <g id="Group_287" data-name="Group 287" transform="translate(33.068 100.346)">
        <g id="Group_286" data-name="Group 286" transform="translate(0 0)">
          <path id="Path_227" data-name="Path 227" d="M337.542,396.853a.736.736,0,0,0-.736.736v3.149a.736.736,0,1,0,1.473,0v-3.149A.736.736,0,0,0,337.542,396.853Z" transform="translate(-336.806 -396.853)" fill="#7792a5"/>
        </g>
      </g>
    </g>
  </g>
</svg>
