<svg xmlns="http://www.w3.org/2000/svg" xmlns:xlink="http://www.w3.org/1999/xlink" width="265.305" height="75.77" viewBox="0 0 265.305 75.77"><defs><clipPath id="a"><rect width="265.305" height="75.77" fill="none"/></clipPath></defs><g clip-path="url(#a)"><path d="M135.355,163.65v18.69a9.781,9.781,0,0,0,.624,3.982q1.107,2.365,4.332,2.365,4.133,0,5.675-3.358a12.184,12.184,0,0,0,.785-4.8V163.65H155v31.015h-7.879v-4.379q-.114.142-.568.851a5.676,5.676,0,0,1-1.078,1.249,11.35,11.35,0,0,1-3.679,2.336,12.494,12.494,0,0,1-4.152.624q-6.867,0-9.251-4.947-1.334-2.743-1.334-8.059V163.65Z" transform="translate(-41.554 -141.192)" fill="#008cd1"/><path d="M187.9,166.94q3.783,4.02,3.783,11.776,0,8.2-3.708,12.495a12.022,12.022,0,0,1-9.544,4.294,10.007,10.007,0,0,1-6.186-1.892,12.174,12.174,0,0,1-2.639-2.989V206.78H161.6V163.611h7.766v4.578A13.242,13.242,0,0,1,172.2,165a10.4,10.4,0,0,1,6.47-2.071,12.3,12.3,0,0,1,9.232,4.01Zm-6.224,5.836a5.751,5.751,0,0,0-5.354-2.762A6.1,6.1,0,0,0,170.2,174.2a15.663,15.663,0,0,0-.861,5.675c0,3.6.946,6.129,2.9,7.567a6.621,6.621,0,0,0,4.077,1.277,5.921,5.921,0,0,0,5.221-2.62,13.687,13.687,0,0,0,.142-13.308Z" transform="translate(-43.424 -141.153)" fill="#008cd1"/><path d="M222.494,166.94q3.783,4.02,3.783,11.776,0,8.2-3.717,12.495a12.022,12.022,0,0,1-9.525,4.294,10.007,10.007,0,0,1-6.186-1.892,12.174,12.174,0,0,1-2.639-2.989V206.78H196.19V163.611h7.766v4.578A13.243,13.243,0,0,1,206.793,165a10.4,10.4,0,0,1,6.47-2.071,12.3,12.3,0,0,1,9.232,4.01Zm-6.224,5.836a5.751,5.751,0,0,0-5.354-2.762,6.1,6.1,0,0,0-6.129,4.181,15.881,15.881,0,0,0-.861,5.675c0,3.6.946,6.129,2.9,7.567a6.621,6.621,0,0,0,4.086,1.277,5.912,5.912,0,0,0,5.212-2.62,13.687,13.687,0,0,0,.142-13.308Z" transform="translate(-45.297 -141.153)" fill="#008cd1"/><path d="M241.078,194.039H233V152.1h8.106Z" transform="translate(-47.29 -140.567)" fill="#008cd1"/><path d="M256.4,159.312h-8.22V151.83h8.22Zm-8.22,3.7h8.22v31.015h-8.22Z" transform="translate(-48.112 -140.552)" fill="#008cd1"/><path d="M284.621,164.228a12.7,12.7,0,0,1,5.363,4.587,15.313,15.313,0,0,1,2.469,6.413,38.958,38.958,0,0,1,.265,6.158H270.131q.2,4.673,3.244,6.545a8.267,8.267,0,0,0,4.474,1.163,6.271,6.271,0,0,0,6.167-3.556h8.248a10.186,10.186,0,0,1-3.008,5.609q-4.171,4.521-11.672,4.521a16.912,16.912,0,0,1-10.925-3.783q-4.729-3.783-4.729-12.419,0-8.059,4.275-12.362a14.945,14.945,0,0,1,11.086-4.294,17.668,17.668,0,0,1,7.33,1.419ZM272.5,171.237a8.437,8.437,0,0,0-2.166,4.8H284.3a6.744,6.744,0,0,0-2.157-4.9,7.15,7.15,0,0,0-4.814-1.665A6.4,6.4,0,0,0,272.5,171.237Z" transform="translate(-48.856 -141.146)" fill="#008cd1"/><path d="M315.429,162.879l.69.047v8.3q-.766-.085-1.362-.113h-.946q-4.9,0-6.574,3.188a12.429,12.429,0,0,0-.946,5.524v14.822H298.12V163.608h7.737v5.41a17.5,17.5,0,0,1,3.273-4.247,8.938,8.938,0,0,1,5.921-1.892Z" transform="translate(-50.815 -141.15)" fill="#008cd1"/><path d="M107.88,193.083h3.093a7.283,7.283,0,0,0,7.264-7.264V147.644a7.293,7.293,0,0,0-7.264-7.264H77.953c7.567,0,13.828,1.892,19.2,5.883s8.191,9.771,8.456,17.347H91.29q-.4-6.432-5.76-9.146a19.712,19.712,0,0,0-8.872-1.788q-5.9,0-9.459,2.327a7.34,7.34,0,0,0-3.519,6.479,6.11,6.11,0,0,0,3.471,5.675q2.232,1.249,9.459,2.951l12.561,3.017q8.229,1.892,12.3,5.174,6.375,5.041,6.375,14.566Z" transform="translate(-38.123 -139.932)" fill="#008cd1"/><path d="M48.266,163.78H43.924a7.274,7.274,0,0,0-7.264,7.264v38.175a7.283,7.283,0,0,0,7.264,7.264H76.49c-8.9-.123-15.947-1.958-21.131-6.044q-8.059-6.356-8.068-17.489H61.479q.69,4.89,2.715,7.3,3.755,4.408,12.741,4.408a27.269,27.269,0,0,0,8.74-1.163q6.375-2.223,6.375-8.276a6.11,6.11,0,0,0-3.121-5.467q-3.121-1.892-9.9-3.339l-7.718-1.693q-11.35-2.516-15.645-5.467-7.207-4.918-7.207-15.427" transform="translate(-36.66 -141.199)" fill="#56b146"/><path d="M221.208,213.036a4.672,4.672,0,0,0,.653,2.336c.738,1.126,2.024,1.684,3.878,1.684a6.422,6.422,0,0,0,2.27-.369,2.582,2.582,0,0,0,1.977-2.554,2.242,2.242,0,0,0-.832-1.977,8.238,8.238,0,0,0-2.667-1l-2.223-.52a9.752,9.752,0,0,1-3.083-1.116,3.575,3.575,0,0,1-1.57-3.169,4.994,4.994,0,0,1,1.542-3.783,6.091,6.091,0,0,1,4.36-1.466,7.463,7.463,0,0,1,4.408,1.286,4.729,4.729,0,0,1,1.816,4.114h-2.157a4.37,4.37,0,0,0-.709-2.081,4.029,4.029,0,0,0-3.424-1.334,3.783,3.783,0,0,0-2.838.861,2.715,2.715,0,0,0-.851,1.977,1.948,1.948,0,0,0,1.012,1.826,14.187,14.187,0,0,0,2.979.946l2.308.539a7.037,7.037,0,0,1,2.573,1.078,4.058,4.058,0,0,1,1.561,3.443,4.323,4.323,0,0,1-2,4.029,8.74,8.74,0,0,1-4.569,1.192,6.8,6.8,0,0,1-4.824-1.608,5.477,5.477,0,0,1-1.712-4.351Z" transform="translate(-46.536 -143.219)" fill="#008cd1"/><path d="M237.947,206.429v8.21a3.623,3.623,0,0,0,.284,1.542,2.034,2.034,0,0,0,2.015,1.107,2.838,2.838,0,0,0,2.838-1.892,7.7,7.7,0,0,0,.416-2.838v-6.072h2.081v12.306h-1.958v-1.826a4.2,4.2,0,0,1-.946,1.192,4.294,4.294,0,0,1-2.838.946,3.633,3.633,0,0,1-3.528-1.759,5.363,5.363,0,0,1-.511-2.535v-8.4Z" transform="translate(-47.441 -143.507)" fill="#008cd1"/><path d="M249.52,201.57h2.109v2.355H249.52Zm0,4.654h2.109v12.3H249.52Z" transform="translate(-48.184 -143.245)" fill="#008cd1"/><path d="M255.164,202.78h2.1v3.452h1.977v1.693h-1.977V216a.861.861,0,0,0,.435.861,1.892,1.892,0,0,0,.813.123h.728v1.646a4.985,4.985,0,0,1-.747.151,7.651,7.651,0,0,1-.842.047,2.232,2.232,0,0,1-1.967-.747,3.254,3.254,0,0,1-.52-1.892V208H253.49v-1.693h1.674Z" transform="translate(-48.399 -143.31)" fill="#008cd1"/><path d="M269.1,206.751a4.729,4.729,0,0,1,1.892,1.6,5.42,5.42,0,0,1,.823,2.185,14.188,14.188,0,0,1,.189,2.724h-9a5.362,5.362,0,0,0,.88,3.027,2.97,2.97,0,0,0,2.554,1.135,3.292,3.292,0,0,0,2.582-1.078,3.679,3.679,0,0,0,.766-1.447h2.034a4.2,4.2,0,0,1-.53,1.523,5.231,5.231,0,0,1-1.021,1.362,4.805,4.805,0,0,1-2.327,1.249,6.96,6.96,0,0,1-1.684.18,5.183,5.183,0,0,1-3.888-1.674,6.564,6.564,0,0,1-1.589-4.729,7.113,7.113,0,0,1,1.608-4.843,5.268,5.268,0,0,1,4.19-1.892,5.6,5.6,0,0,1,2.516.681Zm.747,4.852a5.324,5.324,0,0,0-.586-2.157,2.97,2.97,0,0,0-2.838-1.5,3.121,3.121,0,0,0-2.383,1.04,3.887,3.887,0,0,0-1.022,2.62Z" transform="translate(-48.793 -143.488)" fill="#008cd1"/><path d="M129.205,151.865a4.673,4.673,0,0,0,.634,2.317c.738,1.126,2.024,1.684,3.878,1.684a6.621,6.621,0,0,0,2.261-.369,2.592,2.592,0,0,0,1.977-2.554,2.27,2.27,0,0,0-.832-1.977,8.514,8.514,0,0,0-2.658-1l-2.223-.52a9.7,9.7,0,0,1-3.084-1.116,3.566,3.566,0,0,1-1.561-3.169,4.947,4.947,0,0,1,1.532-3.783,6.063,6.063,0,0,1,4.351-1.457,7.416,7.416,0,0,1,4.4,1.277,4.729,4.729,0,0,1,1.816,4.115h-2.157a4.313,4.313,0,0,0-.709-2.09,4.02,4.02,0,0,0-3.415-1.324,3.831,3.831,0,0,0-2.838.851,2.724,2.724,0,0,0-.851,1.986,1.892,1.892,0,0,0,1.059,1.882,14.547,14.547,0,0,0,2.979.946l2.308.539a6.99,6.99,0,0,1,2.563,1.069,4.077,4.077,0,0,1,1.561,3.452,4.323,4.323,0,0,1-2,4.02,8.749,8.749,0,0,1-4.635,1.211,6.782,6.782,0,0,1-4.814-1.617,5.524,5.524,0,0,1-1.712-4.341Z" transform="translate(-41.553 -139.906)" fill="#008cd1"/><path d="M151.136,145.279h2.3q-.445,1.182-1.948,5.41-1.135,3.2-1.892,5.193a35.231,35.231,0,0,1-2.535,5.76,2.894,2.894,0,0,1-2.535,1.031,6.136,6.136,0,0,1-.672,0,5.811,5.811,0,0,1-.577-.132v-1.892a7.73,7.73,0,0,0,.776.189,3.921,3.921,0,0,0,.426,0,1.532,1.532,0,0,0,.851-.189,1.8,1.8,0,0,0,.454-.473c0-.057.17-.378.416-.946s.407-.993.511-1.267l-4.559-12.7H144.5l3.311,10.045Z" transform="translate(-42.371 -140.196)" fill="#008cd1"/><path d="M157.266,153.725a2.9,2.9,0,0,0,.53,1.589,3.339,3.339,0,0,0,2.771,1,4.2,4.2,0,0,0,2.071-.5,1.655,1.655,0,0,0,.889-1.551,1.334,1.334,0,0,0-.709-1.211,9.458,9.458,0,0,0-1.807-.586l-1.674-.416a8.172,8.172,0,0,1-2.365-.87,2.62,2.62,0,0,1-1.362-2.327,3.538,3.538,0,0,1,1.286-2.838,5.155,5.155,0,0,1,3.433-1.088,4.805,4.805,0,0,1,4.077,1.636,3.594,3.594,0,0,1,.766,2.242h-1.967a2.384,2.384,0,0,0-.5-1.277,3.31,3.31,0,0,0-2.535-.813,3.055,3.055,0,0,0-1.826.454,1.381,1.381,0,0,0-.624,1.182,1.466,1.466,0,0,0,.813,1.286,4.88,4.88,0,0,0,1.39.5l1.4.331a11.351,11.351,0,0,1,3.046,1.05,2.771,2.771,0,0,1,1.211,2.507,3.783,3.783,0,0,1-1.258,2.838,5.486,5.486,0,0,1-3.859,1.192c-1.892,0-3.178-.416-3.954-1.249a4.729,4.729,0,0,1-1.239-3.093Z" transform="translate(-43.082 -140.177)" fill="#008cd1"/><path d="M176.4,145.94a4.843,4.843,0,0,1,1.57,3.49H175.96a3.784,3.784,0,0,0-.842-1.892,2.667,2.667,0,0,0-2.109-.757,2.913,2.913,0,0,0-2.838,1.892,7.718,7.718,0,0,0-.549,3.1,5.741,5.741,0,0,0,.785,3.112,3.046,3.046,0,0,0,4.512.482,4.285,4.285,0,0,0,1.04-2.147h2.015a4.881,4.881,0,0,1-5.268,4.729,4.729,4.729,0,0,1-3.859-1.769,6.791,6.791,0,0,1-1.438-4.417,7.472,7.472,0,0,1,1.58-5.06,5.108,5.108,0,0,1,4.02-1.807,5.41,5.41,0,0,1,3.4,1.04Z" transform="translate(-43.738 -140.177)" fill="#008cd1"/><path d="M189.44,146.489a6.243,6.243,0,0,1,1.636,4.673,8.1,8.1,0,0,1-1.438,4.928,5.221,5.221,0,0,1-4.474,1.948,5.041,5.041,0,0,1-4.02-1.721,6.829,6.829,0,0,1-1.485-4.625,7.425,7.425,0,0,1,1.561-4.956,5.278,5.278,0,0,1,4.219-1.835,5.515,5.515,0,0,1,4,1.589Zm-1.286,8.2a7.889,7.889,0,0,0,.757-3.471,6.157,6.157,0,0,0-.549-2.838,3.065,3.065,0,0,0-2.979-1.7,2.951,2.951,0,0,0-2.743,1.447,6.83,6.83,0,0,0-.851,3.5,5.9,5.9,0,0,0,.851,3.282,3,3,0,0,0,2.715,1.315,2.838,2.838,0,0,0,2.781-1.532Z" transform="translate(-44.401 -140.177)" fill="#008cd1"/></g></svg>