<?xml version="1.0" encoding="utf-8"?>
<!-- Generator: Adobe Illustrator 26.0.1, SVG Export Plug-In . SVG Version: 6.00 Build 0)  -->
<svg version="1.1" id="Layer_1" xmlns="http://www.w3.org/2000/svg" xmlns:xlink="http://www.w3.org/1999/xlink" x="0px" y="0px"
	 viewBox="0 0 159.5 35.7" style="enable-background:new 0 0 159.5 35.7;" xml:space="preserve">
<style type="text/css">
	.st0{enable-background:new    ;}
	.st1{fill:#5294C7;}
</style>
<g id="Group_470" transform="translate(-215.5 -37)">
	<g class="st0">
		<path class="st1" d="M253.7,42.5c1.4-0.2,3.4-0.4,5.5-0.4c2.9,0,4.8,0.5,6.2,1.6c1.1,0.9,1.7,2.3,1.7,4c0,2.6-1.7,4.3-3.6,5v0.1
			c1.4,0.5,2.3,1.9,2.8,3.9c0.6,2.5,1.2,4.8,1.6,5.6h-3.8c-0.3-0.6-0.8-2.2-1.3-4.7c-0.6-2.6-1.5-3.4-3.6-3.5h-1.8v8.2h-3.6V42.5z
			 M257.3,51.4h2.2c2.5,0,4-1.3,4-3.3c0-2.2-1.5-3.2-3.9-3.2c-1.2,0-1.9,0.1-2.3,0.2V51.4z"/>
		<path class="st1" d="M274.5,56.1c0.1,2.6,2.1,3.7,4.4,3.7c1.7,0,2.9-0.2,4-0.7l0.5,2.5c-1.2,0.5-3,0.9-5,0.9
			c-4.7,0-7.4-2.9-7.4-7.3c0-4,2.4-7.8,7-7.8c4.7,0,6.2,3.9,6.2,7c0,0.7-0.1,1.2-0.1,1.5H274.5z M280.8,53.5c0-1.3-0.6-3.5-3-3.5
			c-2.3,0-3.2,2-3.3,3.5H280.8z"/>
		<path class="st1" d="M290.7,47.8l1.5,6.5c0.3,1.5,0.7,3.1,0.9,4.7h0.1c0.3-1.6,0.8-3.2,1.2-4.7l1.9-6.6h3l1.8,6.4
			c0.4,1.7,0.8,3.3,1.2,4.8h0.1c0.2-1.6,0.6-3.1,0.9-4.8l1.6-6.4h3.6l-4.5,14.4h-3.4l-1.7-5.9c-0.4-1.5-0.8-2.9-1.1-4.6h-0.1
			c-0.3,1.8-0.7,3.2-1.1,4.6l-1.8,5.9h-3.4L287,47.8H290.7z"/>
		<path class="st1" d="M320.1,62.2l-0.2-1.6h-0.1c-0.9,1.1-2.4,1.9-4.3,1.9c-2.9,0-4.5-2.1-4.5-4.3c0-3.6,3.2-5.5,8.6-5.4v-0.2
			c0-0.9-0.4-2.5-2.9-2.5c-1.4,0-2.9,0.4-3.9,1.1l-0.7-2.4c1.1-0.7,2.9-1.3,5.2-1.3c4.6,0,6,2.9,6,6.1v5.2c0,1.3,0.1,2.6,0.2,3.5
			H320.1z M319.6,55.2c-2.6-0.1-5,0.5-5,2.7c0,1.4,0.9,2.1,2.1,2.1c1.5,0,2.5-0.9,2.8-2c0.1-0.3,0.1-0.6,0.1-0.8V55.2z"/>
		<path class="st1" d="M328.4,52.5c0-2,0-3.3-0.1-4.6h3.2l0.1,2.8h0.1c0.7-2,2.4-3.1,3.9-3.1c0.4,0,0.6,0,0.9,0.1V51
			c-0.3-0.1-0.6-0.1-1.1-0.1c-1.7,0-2.9,1.1-3.3,2.8c-0.1,0.3-0.1,0.7-0.1,1.1v7.5h-3.6V52.5z"/>
		<path class="st1" d="M353.4,41.2v17c0,1.5,0.1,3.1,0.1,4.1h-3.3l-0.1-2.3h-0.1c-0.9,1.6-2.6,2.6-4.7,2.6c-3.4,0-6.2-2.9-6.2-7.4
			c0-4.8,3-7.7,6.5-7.7c2,0,3.4,0.8,4.1,1.9h0.1v-8.2H353.4z M349.8,53.8c0-0.3,0-0.7-0.1-0.9c-0.3-1.4-1.5-2.6-3.1-2.6
			c-2.3,0-3.6,2.1-3.6,4.8c0,2.6,1.3,4.6,3.6,4.6c1.5,0,2.8-1,3.1-2.6c0.1-0.3,0.1-0.7,0.1-1.1V53.8z"/>
		<path class="st1" d="M358.6,58.9c0.8,0.5,2.4,1,3.7,1c1.6,0,2.3-0.7,2.3-1.6c0-1-0.6-1.5-2.4-2.1c-2.8-1-4-2.5-4-4.2
			c0-2.5,2.1-4.5,5.4-4.5c1.6,0,3,0.4,3.8,0.9l-0.7,2.6c-0.6-0.4-1.8-0.8-3.1-0.8c-1.3,0-2,0.6-2,1.5c0,0.9,0.7,1.4,2.5,2
			c2.6,0.9,3.8,2.3,3.8,4.4c0,2.6-2,4.5-5.9,4.5c-1.7,0-3.3-0.4-4.4-1L358.6,58.9z"/>
	</g>
	<g id="medal" transform="translate(215.5 37)">
		<g id="Group_41" transform="translate(0 0)">
			<path id="Path_127" class="st1" d="M30,16.6l-1.5-2.1c-0.1-0.1-0.1-0.3,0-0.5l1.5-2.1c0.1-0.2,0.1-0.4-0.1-0.5c0,0,0,0,0,0
				l-2.3-1.2c-0.1-0.1-0.2-0.2-0.2-0.4l0.4-2.5c0-0.2-0.1-0.4-0.3-0.4c0,0,0,0-0.1,0l-2.6-0.1c-0.2,0-0.3-0.1-0.4-0.3L23.7,4
				c-0.1-0.2-0.3-0.3-0.5-0.3c0,0,0,0,0,0l-2.4,1c-0.2,0.1-0.3,0-0.4-0.1l-1.7-1.9c-0.1-0.2-0.4-0.2-0.6,0c0,0,0,0,0,0l-1.7,1.9
				c-0.1,0.1-0.3,0.2-0.4,0.1l-2.4-1c-0.2-0.1-0.4,0-0.5,0.2c0,0,0,0,0,0l-0.7,2.5c0,0.2-0.2,0.3-0.3,0.3L9.5,7
				C9.2,7,9.1,7.2,9.1,7.4c0,0,0,0,0,0l0.5,2.5c0,0.2,0,0.3-0.2,0.4l-2.3,1.2c-0.2,0.1-0.3,0.3-0.1,0.5c0,0,0,0,0,0l1.5,2.1
				c0.1,0.1,0.1,0.3,0,0.5L7,16.8c-0.1,0.2-0.1,0.4,0.1,0.5c0,0,0,0,0,0l2.3,1.2c0.1,0.1,0.2,0.2,0.2,0.4l-0.4,2.5
				c0,0.2,0.1,0.4,0.3,0.4c0,0,0,0,0.1,0l2.6,0.1c0.2,0,0.3,0.1,0.4,0.3l0.7,2.5c0.1,0.2,0.3,0.3,0.5,0.3c0,0,0,0,0,0l2.4-1
				c0.2-0.1,0.3,0,0.4,0.1l1.7,1.9c0.1,0.2,0.4,0.2,0.6,0c0,0,0,0,0,0l1.7-1.9C20.7,24,20.8,24,21,24l2.4,1c0.2,0.1,0.4,0,0.5-0.2
				c0,0,0,0,0,0l0.7-2.5c0-0.2,0.2-0.3,0.3-0.3l2.6-0.1c0.2,0,0.4-0.2,0.4-0.4c0,0,0,0,0,0l-0.5-2.5c0-0.2,0-0.3,0.2-0.4l2.3-1.2
				C30,17.1,30.1,16.9,30,16.6C30,16.7,30,16.7,30,16.6z M18.5,21.4c-3.9,0-7-3.1-7-7s3.1-7,7-7c3.9,0,7,3.1,7,7c0,0,0,0,0,0
				C25.5,18.3,22.3,21.4,18.5,21.4z"/>
			<path id="Path_128" class="st1" d="M24.8,25.9c-0.4,0.4-0.9,0.6-1.4,0.6c-0.2,0-0.4,0-0.6-0.1l-1.6-0.5l-1.3,1.2
				c0,0-0.1,0.1-0.1,0.1l2,6.3c0,0.2,0.2,0.2,0.4,0.2c0.1,0,0.1-0.1,0.1-0.1l1.5-1.9c0.1-0.1,0.2-0.1,0.3-0.1l2.3,0.7
				c0.2,0,0.3,0,0.4-0.2c0-0.1,0-0.1,0-0.2L24.8,25.9z"/>
			<path id="Path_129" class="st1" d="M15.9,25.9l-1.6,0.5c-0.2,0.1-0.4,0.1-0.6,0.1c-0.5,0-1.1-0.2-1.4-0.6l-1.9,6
				c0,0.2,0,0.3,0.2,0.4c0.1,0,0.1,0,0.2,0l2.3-0.7c0.1,0,0.2,0,0.3,0.1l1.5,1.9c0.1,0.1,0.3,0.2,0.4,0.1c0,0,0.1-0.1,0.1-0.1l2-6.3
				c0,0-0.1-0.1-0.1-0.1L15.9,25.9z"/>
			<path id="Path_130" class="st1" d="M22.6,12.7L20,12.5L19,10c-0.1-0.3-0.4-0.4-0.7-0.3C18.1,9.8,18,9.9,18,10l-1,2.4l-2.6,0.2
				c-0.3,0-0.5,0.3-0.5,0.6c0,0.1,0.1,0.3,0.2,0.4l2,1.7l-0.6,2.6c-0.1,0.3,0.1,0.6,0.4,0.7c0.1,0,0.3,0,0.4-0.1l2.2-1.4l2.2,1.4
				c0.3,0.2,0.6,0.1,0.8-0.2c0.1-0.1,0.1-0.3,0.1-0.4l-0.6-2.6l2-1.7c0.2-0.2,0.3-0.5,0.1-0.8C22.9,12.8,22.8,12.7,22.6,12.7z"/>
		</g>
	</g>
</g>
</svg>
